<svg xmlns="http://www.w3.org/2000/svg" width="119.126" height="114.536" viewBox="0 0 119.126 114.536">
  <g id="Clinical_Affairs" data-name="Clinical Affairs" transform="translate(-2070.874 -1904)">
    <path id="Path_15" data-name="Path 15" d="M109.436,80.173c-.854-2.812-.44-5.141-.6-7.43a21.441,21.441,0,0,0-21.585-19.7A20.691,20.691,0,0,0,66.564,72.922c-.251,5.6-.126,11.217-.107,16.827a25.825,25.825,0,0,1-.795,6.859,15.811,15.811,0,0,1-15.377,11.683A15.327,15.327,0,0,1,35.775,95.63c-.988-6.668-.46-13.433-.262-19.9,3.044-1.941,5.926-1.216,8.67-1.271C57.289,74.2,68.374,59.315,64.092,46.951c-4.152-11.988-6.437-24.625-13.059-35.82a12.781,12.781,0,0,1-5.905,5.855c.653-.008,1.327-.018,2.056-.018,1.835,1.012,2.421,3.131,3.075,5.144,2.9,8.934,5.709,17.9,8.64,26.822a8.883,8.883,0,0,1,.006,5.787,25.965,25.965,0,0,1-6.026,10.116,11.728,11.728,0,0,1-8.817,3.831c-7.763-.037-15.527-.019-23.289-.009a10.666,10.666,0,0,1-6.058-1.854A18.313,18.313,0,0,1,7.344,45.684C9.783,38.15,12.177,30.6,14.617,23.067c.707-2.186,1.352-4.425,3.114-5.917a3.85,3.85,0,0,1,1.327-.292c-.236-.241-.478-.475-.712-.717a52.858,52.858,0,0,1-4.13-4.493c-.212.323-.455.639-.665.94a42.135,42.135,0,0,0-5.3,11.678C5.921,31.661,3.891,39.172,1.134,46.407a16.167,16.167,0,0,0,.657,13.318c4.278,9.148,10.355,15.73,21.633,14.76,1.9-.163,4.01-.464,5.585,1.188.869,1.913.6,3.92.633,5.886.074,4.623-.18,9.272.213,13.866,1.188,13.853,14.137,19.987,22.575,19.011,11.886-1.375,19.537-10.261,19.686-22.266.073-5.945-.109-11.9.087-17.838A15.724,15.724,0,0,1,83.04,59.789a15.031,15.031,0,0,1,16.739,5.579,17.489,17.489,0,0,1,3.077,14.075c-1.277,1.673-2.791,2.07-4,2.926A13.157,13.157,0,0,0,96.368,84.7c2.015.033,4.163.2,6.335.339a5.064,5.064,0,0,1,6.443.164,26.022,26.022,0,0,0,3.52-.335,6.134,6.134,0,0,1,1.48-.311l.83-.064c.1-.007.193.008.291.007a14.01,14.01,0,0,0-5.831-4.323" transform="translate(2070.874 1904)" fill="#58585a"/>
    <path id="Path_16" data-name="Path 16" d="M52.126,9a9,9,0,1,1-9-9,9,9,0,0,1,9,9" transform="translate(2070.874 1904)" fill="#543071"/>
    <path id="Path_17" data-name="Path 17" d="M106.126,80a13,13,0,1,0,13,13,13,13,0,0,0-13-13m0,21a8,8,0,1,1,8-8,8,8,0,0,1-8,8" transform="translate(2070.874 1904)" fill="#543071"/>
    <path id="Path_18" data-name="Path 18" d="M30.126,9a9,9,0,1,1-9-9,9,9,0,0,1,9,9" transform="translate(2070.874 1904)" fill="#543071"/>
    <rect id="Rectangle_6" data-name="Rectangle 6" width="119.126" height="114.536" transform="translate(2070.874 1904)" fill="none"/>
  </g>
</svg>
