<svg id="Continuous_" data-name="Continuous " xmlns="http://www.w3.org/2000/svg" xmlns:xlink="http://www.w3.org/1999/xlink" width="131.244" height="150" viewBox="0 0 131.244 150">
  <defs>
    <clipPath id="clip-path">
      <rect id="Rectangle_17" data-name="Rectangle 17" width="131.244" height="150" fill="none"/>
    </clipPath>
    <clipPath id="clip-path-2">
      <rect id="Rectangle_7" data-name="Rectangle 7" width="28.137" height="9.383" fill="none"/>
    </clipPath>
    <clipPath id="clip-path-3">
      <rect id="Rectangle_8" data-name="Rectangle 8" width="53.446" height="75.167" fill="none"/>
    </clipPath>
    <clipPath id="clip-path-4">
      <rect id="Rectangle_9" data-name="Rectangle 9" width="21.275" height="21.558" fill="none"/>
    </clipPath>
    <clipPath id="clip-path-5">
      <rect id="Rectangle_10" data-name="Rectangle 10" width="27.911" height="6.327" fill="none"/>
    </clipPath>
    <clipPath id="clip-path-6">
      <rect id="Rectangle_11" data-name="Rectangle 11" width="28.311" height="4.529" fill="none"/>
    </clipPath>
    <clipPath id="clip-path-7">
      <rect id="Rectangle_12" data-name="Rectangle 12" width="16.055" height="19.948" fill="none"/>
    </clipPath>
    <clipPath id="clip-path-8">
      <rect id="Rectangle_13" data-name="Rectangle 13" width="6.308" height="18.964" fill="none"/>
    </clipPath>
    <clipPath id="clip-path-9">
      <rect id="Rectangle_14" data-name="Rectangle 14" width="13.957" height="6.364" fill="none"/>
    </clipPath>
    <clipPath id="clip-path-10">
      <rect id="Rectangle_15" data-name="Rectangle 15" width="28.331" height="2.315" fill="none"/>
    </clipPath>
    <clipPath id="clip-path-11">
      <rect id="Rectangle_16" data-name="Rectangle 16" width="28.307" height="2.066" fill="none"/>
    </clipPath>
  </defs>
  <g id="Group_34" data-name="Group 34" clip-path="url(#clip-path)">
    <g id="Group_6" data-name="Group 6" transform="translate(50.63 140.617)" style="isolation: isolate">
      <g id="Group_5" data-name="Group 5">
        <g id="Group_4" data-name="Group 4" clip-path="url(#clip-path-2)">
          <path id="Path_19" data-name="Path 19" d="M113.839,239.025a1.348,1.348,0,0,1-.35,1.909,39.206,39.206,0,0,1-11.865,6.872,4.039,4.039,0,0,1-2.869.033,38.715,38.715,0,0,1-12.573-7.361c-.13-.116-.157-.346-.235-.528A1.057,1.057,0,0,1,87,238.79a20.371,20.371,0,0,1,2.053-.049q11.01,0,22.02.008a5.258,5.258,0,0,1,2.764.276" transform="translate(-85.948 -238.704)" fill="#58585a"/>
        </g>
      </g>
    </g>
    <path id="Path_20" data-name="Path 20" d="M121.986,79.867c.278-1.806-.857-3.123-.472-4.787a14.422,14.422,0,0,1,4.341-2.727l3.093,2.818c1.9.025,3.621-.709,5.487-.981l1.8-4.059c1.837-.57,3.522.034,5.329.436.624,1.274.358,2.856,1.3,4.37l4.53,2.019c1.462-.181,2.374-1.377,3.75-1.919,1.865.475,2.966,2,4.318,3.4l-1.781,4.109,2.745,4.837,4.4.808a13.617,13.617,0,0,1,1.086,5.087c-.993,1.192-2.644,1.351-3.732,2.578-.495,1.695-.193,3.56-.5,5.506l3.114,2.715a10.882,10.882,0,0,1-1.846,4.984c-1.511.492-2.986-.174-4.623.181l-3.494,3.992c-.142,1.585.929,2.916.495,4.58a9.952,9.952,0,0,1-4.245,2.623c-1.385-.622-2.089-1.91-3.414-2.767l-4.989,1.1c-1.214,1.095-1.067,2.926-2.274,4.218l-4.917-.425c-.964-1.462-.254-3.166-1.518-4.59l-4.654-2.092-3.817,2.189a20.7,20.7,0,0,1-3.979-3.5c.257-1.583,1.465-2.791,1.618-4.433l-2.563-4.422c-1.335-.922-2.792-.413-4.284-.8-1.01-1.484-1.13-3.325-1.378-5.114,1.034-1.192,2.527-1.6,3.851-2.7.134-1.651.283-3.481.435-5.348-.692-1.331-2.223-1.856-3.165-3.09a16.23,16.23,0,0,1,1.977-5.011c1.624-.526,3.012.706,4.554.121l3.417-3.9m14.982,31.844a14.9,14.9,0,0,0,14.956-14.959A14.7,14.7,0,0,0,136.7,81.758c-9.373.083-14.818,7.808-14.788,15.128a15.013,15.013,0,0,0,15.059,14.825" transform="translate(-45.578 -28.722)" fill="#58585a"/>
    <path id="Path_21" data-name="Path 21" d="M99.965,66.162l-3.321,1.711c-.169.96-.335,1.9-.492,2.795a5.984,5.984,0,0,1-3.179.479c-1.013-.448-.933-1.547-1.627-2.253a7.9,7.9,0,0,0-3.7-.712l-2.11,1.773a5.461,5.461,0,0,1-2.846-1.414c-.468-1.016.331-1.8.185-2.766-.48-1.16-1.707-1.754-2.3-2.682-1.168-.478-2.113-.082-3.124.068a6.2,6.2,0,0,1-1.514-2.991c.27-1.108,1.382-1.495,1.745-2.5a7.609,7.609,0,0,0-.556-3.328c-.511-.863-1.536-.942-2.238-1.721a6.737,6.737,0,0,1,.121-3.151c.917-.926,2.077-.37,3.076-1.057l1.4-2.74c.187-1.4-.921-2.15-.944-3.265a8.938,8.938,0,0,1,2.246-2.269c1.082-.107,1.732.917,2.963.983l2.63-1.371c1.01-.994.5-2.142,1.144-3.15l2.846-.575c1,.716,1.013,1.855,1.871,2.67l3.127.67c1.093-.41,1.538-1.39,2.479-2.008a10.667,10.667,0,0,1,3.087,1.445c-.059,1.043-.509,1.975-.193,3.425l2.764,1.985c.62.742,1.407-.091,2.5.084.82.675,1.085,1.836,1.563,2.779-.267,1.128-1.391,1.518-1.785,2.783.063.869.147,2.03.217,2.992.685,1.087,1.809,1.161,2.584,1.907.472,1.234.014,2.4-.583,3.689l-2.557.417-1.764,3.424,1.355,2.627a8.139,8.139,0,0,1-2.538,2.556l-2.531-1.314m.24-12.272a8,8,0,0,0-8.088-8.214,8.243,8.243,0,0,0-8.321,8.1,8.347,8.347,0,0,0,8.178,8.282,8.209,8.209,0,0,0,8.231-8.169" transform="translate(-30.71 -14.805)" fill="#58585a"/>
    <g id="Group_9" data-name="Group 9" transform="translate(32.761 47.101)" style="isolation: isolate">
      <g id="Group_8" data-name="Group 8">
        <g id="Group_7" data-name="Group 7" clip-path="url(#clip-path-3)">
          <path id="Path_22" data-name="Path 22" d="M63.04,79.957l2.312,4.3a31.916,31.916,0,0,0-3.787,7.177A27.723,27.723,0,0,0,62.775,113.4a111.04,111.04,0,0,0,7.355,13.39,29.746,29.746,0,0,1,5.037,17.49c-.049,1.946-.008,3.894-.008,5.718.174.194.234.273.308.338s.153.151.235.156c7.543.447,15.093.09,22.639.193a7.93,7.93,0,0,0,2.925-.218c.928-.891.5-2.038.487-3.061a43.674,43.674,0,0,1,1.74-13.045c.3-1.023.756-2,1.147-3.019,1.6-.475,2.9.445,4.421.54a30.685,30.685,0,0,0-2.87,14.7c.045,1.078.065,2.16.021,3.237a5.133,5.133,0,0,1-5.189,5.265c-2.155.087-4.316.023-6.475.023q-8.83,0-17.66,0a6.9,6.9,0,0,1-3.145-.559,4.439,4.439,0,0,1-2.808-4.124c-.024-1.274.023-2.55.08-3.823a28.918,28.918,0,0,0-4.883-18.084A81.7,81.7,0,0,1,58.5,114.285c-5.084-12.176-3.37-23.516,4.542-34.328" transform="translate(-55.614 -79.957)" fill="#58585a"/>
        </g>
      </g>
    </g>
    <path id="Path_23" data-name="Path 23" d="M131.9,42.318c2.318-1.3,2.45-1.589,1.958-4.323.361-.465.771-1.051,1.418-.786,2.213.906,2.968-.517,3.513-2.063,1.992-1.2,2.323,1.677,3.79,1.344.991.16,1.358-.848,2.1-.934.472.05.942.27.984.61.259,2.075,1.154,3.427,3.443,3.529.26.011.5.535.689.759a2.29,2.29,0,0,1-.09.683c-1.071,1.974-1.082,1.978.492,3.9.353.431.319.892.214,1.6-.595.727-2.03.713-2.413,2.065-.306,1.08,1.083,2.378-.58,3.215-2.739-.338-2.871-.276-4.485,2.186-1.7.6-2.2-1.944-3.4-1.519-1.143.166-1.479,1.009-2.306.917a1.55,1.55,0,0,1-1.233-1.36c-.469-2.211-.731-2.369-3.011-2.549-1.36-1.2.08-2.079.326-3.077.318-1.629-2.033-2.213-1.406-4.2m9.282-2.366a4.872,4.872,0,0,0-4.709,4.685,5.3,5.3,0,0,0,4.7,4.8,5.018,5.018,0,0,0,4.782-4.938,4.731,4.731,0,0,0-4.778-4.543" transform="translate(-54.156 -14.321)" fill="#543071"/>
    <g id="Group_12" data-name="Group 12" transform="translate(15.11 19.29)" style="isolation: isolate">
      <g id="Group_11" data-name="Group 11">
        <g id="Group_10" data-name="Group 10" clip-path="url(#clip-path-4)">
          <path id="Path_24" data-name="Path 24" d="M46.889,49.563a14.447,14.447,0,0,1-.017,2.189,2.953,2.953,0,0,1-4.461,2.134A7.519,7.519,0,0,1,40.829,52.6q-6.76-6.73-13.5-13.483a4.391,4.391,0,0,1-1.682-3.279,2.727,2.727,0,0,1,1.479-2.653,3.174,3.174,0,0,1,3.337.072,5.625,5.625,0,0,1,.874.779c5.122,5.111,10.241,10.226,15.549,15.527" transform="translate(-25.65 -32.746)" fill="#543071"/>
        </g>
      </g>
    </g>
    <g id="Group_15" data-name="Group 15" transform="translate(0 64.124)" style="isolation: isolate">
      <g id="Group_14" data-name="Group 14">
        <g id="Group_13" data-name="Group 13" clip-path="url(#clip-path-5)">
          <path id="Path_25" data-name="Path 25" d="M13.97,115.166q-4.708,0-9.416,0a11.97,11.97,0,0,1-2.054-.077,3.152,3.152,0,0,1-.061-6.154,9.294,9.294,0,0,1,1.759-.071q9.71-.005,19.42,0a9.374,9.374,0,0,1,1.469.044,3.233,3.233,0,0,1,2.821,3.238,3.1,3.1,0,0,1-3.051,2.986c-2.743.092-5.492.033-8.238.037-.883,0-1.765,0-2.649,0" transform="translate(0 -108.854)" fill="#543071"/>
        </g>
      </g>
    </g>
    <g id="Group_18" data-name="Group 18" transform="translate(50.552 124.691)" style="isolation: isolate">
      <g id="Group_17" data-name="Group 17">
        <g id="Group_16" data-name="Group 16" clip-path="url(#clip-path-6)">
          <path id="Path_26" data-name="Path 26" d="M86.117,215.251a3.72,3.72,0,0,1,.065-3.089c2.35-.5,20.523-.672,27.369-.271.859.994.547,2.142.378,3.351a7.436,7.436,0,0,1-3.914.954q-10.135,0-20.27,0a7.126,7.126,0,0,1-3.628-.947" transform="translate(-85.814 -211.67)" fill="#58585a"/>
        </g>
      </g>
    </g>
    <g id="Group_21" data-name="Group 21" transform="translate(100.385 19.264)" style="isolation: isolate">
      <g id="Group_20" data-name="Group 20">
        <g id="Group_19" data-name="Group 19" clip-path="url(#clip-path-7)">
          <path id="Path_27" data-name="Path 27" d="M170.99,52.649a4.459,4.459,0,0,1-.379-3.524c.586-2.051.9-4.177,1.38-6.479,2.926-2.905,5.937-5.969,9.038-8.941a3.13,3.13,0,1,1,4.458,4.394c-4.775,4.876-9.626,9.675-14.5,14.551" transform="translate(-170.409 -32.702)" fill="#543071"/>
        </g>
      </g>
    </g>
    <g id="Group_24" data-name="Group 24" transform="translate(65.239)" style="isolation: isolate">
      <g id="Group_23" data-name="Group 23">
        <g id="Group_22" data-name="Group 22" clip-path="url(#clip-path-8)">
          <path id="Path_28" data-name="Path 28" d="M117.055,18.964c-2.155-.9-4.006-1.986-6.294-2.461,0-4.518-.045-8.992.023-13.464A3.028,3.028,0,0,1,113.736,0a3.3,3.3,0,0,1,3.2,2.5,3.441,3.441,0,0,1,.11.867c.006,5.163,0,10.327,0,15.6" transform="translate(-110.747 0)" fill="#543071"/>
        </g>
      </g>
    </g>
    <g id="Group_27" data-name="Group 27" transform="translate(117.286 64.073)" style="isolation: isolate">
      <g id="Group_26" data-name="Group 26">
        <g id="Group_25" data-name="Group 25" clip-path="url(#clip-path-9)">
          <path id="Path_29" data-name="Path 29" d="M203.477,111.911a5.956,5.956,0,0,0-.214-2.9,34.6,34.6,0,0,1,7.274-.107c1.6.1,2.375,1.128,2.5,2.749a3.949,3.949,0,0,1-.328,2.072,3.33,3.33,0,0,1-2.99,1.4c-3.424-.014-6.848,0-10.621,0,1.235-1.647,3.207-1.752,4.377-3.216" transform="translate(-199.1 -108.767)" fill="#543071"/>
        </g>
      </g>
    </g>
    <g id="Group_30" data-name="Group 30" transform="translate(50.665 135.928)" style="isolation: isolate">
      <g id="Group_29" data-name="Group 29">
        <g id="Group_28" data-name="Group 28" clip-path="url(#clip-path-10)">
          <path id="Path_30" data-name="Path 30" d="M86.174,232.545c-.293-.522-.273-.965.667-1.8a6.219,6.219,0,0,0,1.168.1q11.891-.009,23.781,0c1.036,0,2.257-.295,2.548,1.252-.236.846-.908.917-1.62.918q-3.964,0-7.927,0c-5.285,0-10.569.015-15.854-.012-.943,0-1.972.3-2.763-.459" transform="translate(-86.007 -230.745)" fill="#58585a"/>
        </g>
      </g>
    </g>
    <g id="Group_33" data-name="Group 33" transform="translate(50.665 131.55)" style="isolation: isolate">
      <g id="Group_32" data-name="Group 32">
        <g id="Group_31" data-name="Group 31" clip-path="url(#clip-path-11)">
          <path id="Path_31" data-name="Path 31" d="M86.007,224.909v-.942c1.6-.506,23.937-.891,27.184-.482a1.2,1.2,0,0,1,1.123.816c-.073.9-.759,1.02-1.454,1.031-1.859.029-3.718.017-5.576.018-6.065,0-12.131.012-18.2-.012a5.159,5.159,0,0,1-3.08-.429" transform="translate(-86.007 -223.313)" fill="#58585a"/>
        </g>
      </g>
    </g>
    <path id="Path_32" data-name="Path 32" d="M158.705,107.1a11.979,11.979,0,0,1-12.16,12.122,12.222,12.222,0,1,1,.217-24.443A12.054,12.054,0,0,1,158.705,107.1m-12.213,10.128a10.272,10.272,0,1,0,.17-20.543c-6.595-.015-10.2,5.027-10.379,10.2-.2,5.861,5.5,10.718,10.209,10.341" transform="translate(-55.239 -38.945)" fill="#543071"/>
  </g>
</svg>
