<svg xmlns="http://www.w3.org/2000/svg" width="134.466" height="107.521" viewBox="0 0 134.466 107.521">
  <g id="Interprofessional" transform="translate(-3819 -1994.196)">
    <g id="laptop-with-mouse-cursor-svgrepo-com" transform="translate(3819 1994.196)">
      <g id="Group_36" data-name="Group 36" transform="translate(0 0)">
        <path id="Path_33" data-name="Path 33" d="M5.444,85.481H125.119a4.944,4.944,0,0,0,4.946-4.946V7.455a4.944,4.944,0,0,0-4.946-4.946H5.444A4.947,4.947,0,0,0,.5,7.455V80.529A4.952,4.952,0,0,0,5.444,85.481ZM10.391,12.4H120.173v63.2H10.391Z" transform="translate(2.177 -2.509)" fill="#58585a"/>
        <path id="Path_34" data-name="Path 34" d="M134.117,30.463l-2.277-9.646a3.3,3.3,0,0,0-3.206-2.546H5.784a3.308,3.308,0,0,0-3.217,2.562L.36,30.4A3.265,3.265,0,0,0,0,31.9v5.935a3.3,3.3,0,0,0,3.292,3.3H131.168a3.3,3.3,0,0,0,3.3-3.3V31.908A3.152,3.152,0,0,0,134.117,30.463ZM50.6,39l1.429-6.772H79.5L82.461,39ZM5.553,29.712l1.982-7.557h119.4l2.535,7.557Z" transform="translate(0 66.386)" fill="#58585a"/>
      </g>
    </g>
    <g id="book-svgrepo-com_1_" data-name="book-svgrepo-com (1)" transform="translate(3858.326 2009.683)">
      <path id="Path_37" data-name="Path 37" d="M30.5,36.171h16.47v2.393H30.5Zm0-3.313h16.47V30.465H30.5Zm8.228-8.231H30.5v2.392h8.228V24.627Zm0-6.419H30.5V20.6h8.228V18.208ZM30.5,44.237h16.47V41.844H30.5ZM55.814,10.271V50.229H27.21v.056l-.242-.056H0V10.271H2.384v-5l22.675,5ZM53.736,28.839H50.922v2.822h2.814ZM4.779,13.14V42.885l20.039,4.422V12.666l-10.868-2.4L4.779,8.246V13.14Zm9.172,34.222L3.582,45.072v2.29Zm13.259,0H48.847V13.142H46.092V27.316l-2.9-2.692-2.9,2.692V13.142H27.212v34.22ZM22.905,16.8l-11-3.662L8.05,11.858l-.429,1.284-.333.986,14.854,4.946Zm0,6.414L8.051,18.272l-.757,2.271,14.855,4.946Zm0,6.412L8.051,24.683l-.757,2.271L22.149,31.9Zm0,6.415L8.051,31.1l-.757,2.269,14.855,4.942Zm0,5.678L8.051,36.774l-.758,2.271,14.855,4.947Z" transform="translate(0 -5.272)" fill="#543070"/>
    </g>
  </g>
</svg>
