<svg xmlns="http://www.w3.org/2000/svg" xmlns:xlink="http://www.w3.org/1999/xlink" width="87" height="121.728" viewBox="0 0 87 121.728">
  <defs>
    <clipPath id="clip-path">
      <rect id="Rectangle_18" data-name="Rectangle 18" width="87" height="121.728" fill="#58585a"/>
    </clipPath>
  </defs>
  <g id="Quality" transform="translate(-487 -148)">
    <g id="Group_39" data-name="Group 39" transform="translate(487 148)" clip-path="url(#clip-path)">
      <path id="Path_38" data-name="Path 38" d="M.026,52.456a7.2,7.2,0,0,1,.651-3.283c.335-.773.676-1.543,1.014-2.315a7.858,7.858,0,0,0,.024-6.534c-.242-.558-.446-1.137-.738-1.668a9.584,9.584,0,0,1,3.3-12.147c.4-.242.752-.557,1.14-.819a8.331,8.331,0,0,0,3.65-6.925,9.727,9.727,0,0,1,1.305-4.823,9.254,9.254,0,0,1,7.369-4.738,30.168,30.168,0,0,0,3.188-.473,6.944,6.944,0,0,0,4.183-2.64c.615-.766,1.212-1.551,1.765-2.362C28.94.7,34.16-1,37.838.672a22.123,22.123,0,0,0,4.179,1.616,6.808,6.808,0,0,0,4.123-.336c1-.392,2.009-.781,2.976-1.25C52.54-.959,57.6.5,59.828,3.344c.721.921,1.405,1.871,2.128,2.79a7.458,7.458,0,0,0,5.155,2.818q1.045.131,2.09.251a9.509,9.509,0,0,1,8.706,8.934c.048.513.059,1.03.123,1.54a7.943,7.943,0,0,0,3.291,5.8c.719.511,1.419,1.054,2.122,1.587a8.95,8.95,0,0,1,3.5,6.476,9.111,9.111,0,0,1-.928,5.175,11.435,11.435,0,0,0-1.388,4.239,10.343,10.343,0,0,0,1.342,5.378,9.251,9.251,0,0,1,1.02,4.6,9.37,9.37,0,0,1-3.9,7.437c-.566.415-1.118.849-1.685,1.264a8.344,8.344,0,0,0-3.463,6.74A9.6,9.6,0,0,1,69.4,77.916a24.373,24.373,0,0,0-3.332.465,7.055,7.055,0,0,0-3.5,1.951,15.543,15.543,0,0,0-2.017,2.516A9.524,9.524,0,0,1,48.393,86.1a9.77,9.77,0,0,0-9.886.022c-3.676,1.9-7.162,1.106-10.366-1.333A9.173,9.173,0,0,1,26.5,82.877c-.453-.6-.89-1.2-1.348-1.8a7.775,7.775,0,0,0-5.678-2.959c-.931-.093-1.867-.163-2.788-.317A8.6,8.6,0,0,1,12.468,75.7,9.481,9.481,0,0,1,9.094,68.84c-.028-.467-.058-.935-.107-1.4A7.928,7.928,0,0,0,5.47,61.482c-.462-.319-.9-.667-1.365-.988A9.34,9.34,0,0,1,.026,52.456M12.4,43.5A31.138,31.138,0,1,0,43.544,12.36,31.084,31.084,0,0,0,12.4,43.5" transform="translate(0 -0.001)" fill="#58585a"/>
      <path id="Path_39" data-name="Path 39" d="M179.33,317.609c-.9.144-1.157.767-1.463,1.35q-3,5.721-6.005,11.435a6.323,6.323,0,0,1-.962,1.544c-.771.8-1.45.745-2.073-.158a5.266,5.266,0,0,1-.623-1.406q-2.381-7.338-4.781-14.669a2.333,2.333,0,0,1-.124-1.505q1.964-6,3.924-11.971a2.918,2.918,0,0,1,1.691-.084,14.346,14.346,0,0,0,8.454-2.086,11.894,11.894,0,0,0,3.577-3.32c.461-.648.984-1.253,1.417-1.918a3.706,3.706,0,0,1,3.166-1.655,2.193,2.193,0,0,1,.628,1.291c1.295,3.955,2.572,7.915,3.861,11.873q2.446,7.514,4.9,15.025a5.582,5.582,0,0,1,.408,1.912c-.034,1.009-.581,1.48-1.556,1.233a8.913,8.913,0,0,1-1.689-.675q-5.866-2.864-11.72-5.751c-.335-.164-.68-.308-1.028-.465" transform="translate(-117.345 -210.769)" fill="#58585a"/>
      <path id="Path_40" data-name="Path 40" d="M44.848,293.183a4.081,4.081,0,0,1,3.252,1.742,27.014,27.014,0,0,0,2.789,3.508,13.819,13.819,0,0,0,8.442,3.692,12.4,12.4,0,0,0,7.2-1.378,9.345,9.345,0,0,1,1.293-.542,3.831,3.831,0,0,1,3.91.28,2.16,2.16,0,0,1-.21,1.184q-4.091,12.6-8.194,25.2a4.882,4.882,0,0,1-.684,1.528c-.616.8-1.132.842-1.865.167a4.5,4.5,0,0,1-.891-1.251q-2.585-4.9-5.169-9.8c-.415-.786-.826-1.573-1.259-2.348-.616-1.1-.976-1.22-2.154-.655-1.939.93-3.868,1.881-5.8,2.831q-3.211,1.58-6.415,3.175a3.828,3.828,0,0,1-1.73.515c-.776,0-1.107-.31-1.164-1.083a3.921,3.921,0,0,1,.234-1.513c1.965-6.045,3.934-12.089,5.857-18.147.208-.656.8-1.11.721-1.953-.064-.7.538-1.383.709-2.092.175-.727.5-1.4.622-2.145a1.326,1.326,0,0,1,.507-.906" transform="translate(-26.019 -210.781)" fill="#58585a"/>
      <path id="Path_41" data-name="Path 41" d="M96.328,117.271l14.191-14.215c.694-.7,1.371-1.41,2.092-2.076a5.582,5.582,0,0,1,7.836.135,5.513,5.513,0,0,1,.039,7.833c-3.766,3.845-7.6,7.626-11.4,11.436-2.875,2.881-5.785,5.728-8.606,8.661a6.373,6.373,0,0,1-8.3.137c-3.443-3.506-6.963-6.937-10.4-10.45a5.3,5.3,0,0,1-1.133-6.093,5.592,5.592,0,0,1,9.186-1.728c1.952,1.949,3.92,3.883,5.883,5.82.162.16.342.3.612.542" transform="translate(-57.625 -71.491)" fill="#543071"/>
    </g>
  </g>
</svg>
