<svg id="Research" xmlns="http://www.w3.org/2000/svg" xmlns:xlink="http://www.w3.org/1999/xlink" width="136.505" height="116" viewBox="0 0 136.505 116">
  <defs>
    <clipPath id="clip-path">
      <rect id="Rectangle_19" data-name="Rectangle 19" width="136.505" height="116" fill="#58585a"/>
    </clipPath>
  </defs>
  <g id="Group_41" data-name="Group 41" clip-path="url(#clip-path)">
    <path id="Path_42" data-name="Path 42" d="M114.8,79.1c-16.442,9.612-32.925,10.247-48.867-.447C53.2,70.116,47.318,57.57,47.238,41.884c2.241,1.484,4.112,2.928,6.166,4.033,2.87,1.544,4.991,3.5,5.221,6.959,4.317,12.8,13.134,20.63,26.361,23.057,9.953,1.826,18.974-.846,26.792-7.292a31.692,31.692,0,0,0,11.563-20.61c2.114-15.162-5.464-28.335-17.594-34.366-12.548-6.239-24.666-5-35.92,3.377a30.61,30.61,0,0,0-9.38,11.672c-.277.585-.565,1.165-.87,1.736-.06.112-.219.17-.47.354l-8.159-5.443C57.792,11.524,68.479,2.709,83.678.558,102.342-2.082,117.447,4.652,127.3,20.8c9.412,15.42,8.222,31.206-.986,46.768,3.006,2.493,6.147,5.109,9.3,7.709,7.776,6.412,15.524,12.859,23.353,19.206,3.776,3.061,4.732,7.027,4.225,11.578a14.981,14.981,0,0,1-.479,2.32c-1.3,4.7-4.284,7.078-9.608,7.523a15.02,15.02,0,0,1-5.569-.356,10.71,10.71,0,0,1-5.5-3.57q-12.29-15.055-24.69-30.021c-.816-.99-1.711-1.915-2.553-2.852" transform="translate(-26.817 0)" fill="#58585a"/>
    <path id="Path_43" data-name="Path 43" d="M18.489,47.423c7.915,5.257,15.649,10.391,23.38,15.53,3.357,2.232,6.723,4.451,10.052,6.724,1.261.862,2.417,1.312,3.945.508a10.7,10.7,0,0,1,4.288-.79L68.5,55.505c-1.959-4.332-2.131-8.475,1.538-11.943a8.739,8.739,0,0,1,10-1.859c4.187,1.808,5.811,5.342,5.706,9.86,1.807,1.187,3.589,2.4,5.413,3.535a2.744,2.744,0,0,1,1.464,2,31.486,31.486,0,0,1,.487,8.512l-11.65-7.493a9.862,9.862,0,0,1-6.27,1.346L66.807,73.432c2.118,4.15,2.229,8.149-.933,11.713a8.674,8.674,0,0,1-9.682,2.507c-4.7-1.552-6.5-5.354-6.564-10.164-1.542-1.058-3.065-2.133-4.617-3.163-9.481-6.291-18.983-12.55-28.439-18.878a3.909,3.909,0,0,0-4.124-.571A9.136,9.136,0,0,1,.523,49.327,9.23,9.23,0,0,1,6.5,37.387c6.559-2.033,12.126,3.167,11.994,8.211-.015.573,0,1.146,0,1.825m57.8,8.242a5.5,5.5,0,0,0,5.622-5.349,5.481,5.481,0,0,0-10.959-.23,5.334,5.334,0,0,0,5.337,5.579M64.406,78.907a5.337,5.337,0,0,0-5.335-5.576,5.568,5.568,0,0,0-5.489,5.543,5.392,5.392,0,0,0,5.571,5.367,5.085,5.085,0,0,0,5.253-5.333M14.7,46.372A5.2,5.2,0,0,0,9.4,40.8a5.535,5.535,0,0,0-5.621,5.384,5.649,5.649,0,0,0,5.294,5.527A5.494,5.494,0,0,0,14.7,46.372" transform="translate(0 -20.968)" fill="#543070"/>
    <path id="Path_44" data-name="Path 44" d="M253.32,107.769l11.658,7.54c6.711-2.524,12.473-.342,14.04,5.224a9.265,9.265,0,0,1-7.033,11.853,9.228,9.228,0,0,1-11-10.387l-8.943-5.822a60.393,60.393,0,0,0,1.281-8.408m16.858,10.056a5.3,5.3,0,0,0-5.446,5.255,5.239,5.239,0,0,0,5.228,5.653,5.457,5.457,0,1,0,.218-10.908" transform="translate(-143.08 -61.18)" fill="#543070"/>
  </g>
</svg>
