<svg id="Strategy" xmlns="http://www.w3.org/2000/svg" xmlns:xlink="http://www.w3.org/1999/xlink" width="96.104" height="113.399" viewBox="0 0 96.104 113.399">
  <defs>
    <clipPath id="clip-path">
      <rect id="Rectangle_20" data-name="Rectangle 20" width="96.104" height="113.399" fill="#58585a"/>
    </clipPath>
  </defs>
  <g id="Group_43" data-name="Group 43" clip-path="url(#clip-path)">
    <path id="Path_45" data-name="Path 45" d="M77.807,50.288V45.529c.382-.335.8-.227,1.191-.228,3.97-.008,7.939-.017,11.909,0a4.86,4.86,0,0,1,5.181,4.9c.03.5.01,1,.01,1.507q0,43.641.005,87.282a8.875,8.875,0,0,1-.255,2.538A4.828,4.828,0,0,1,91.567,145c-.45.033-.9.023-1.356.023H6.246c-.352,0-.7,0-1.055,0A4.931,4.931,0,0,1,.015,140.09c-.025-.4-.01-.8-.01-1.206Q0,95.093.008,51.3a8.6,8.6,0,0,1,.131-1.948,4.86,4.86,0,0,1,4.639-4.027c4.269-.082,8.541-.016,12.812,0a1.834,1.834,0,0,1,.48.16v4.566a1.6,1.6,0,0,1-1.218.235c-1.859.012-3.721.065-5.577-.011a3.433,3.433,0,0,0-3.5,3.386q0,.6,0,1.206,0,38.516,0,77.031c0,.553-.019,1.107.012,1.658a3.97,3.97,0,0,0,4.09,3.943c.7.015,1.407.008,2.11.008H83.633c.5,0,1.005.01,1.507-.007a3.377,3.377,0,0,0,3.431-3.293c.036-.5.007-1,.007-1.507q0-39.043,0-78.086c0-.3.013-.6-.006-.9a3.483,3.483,0,0,0-3.511-3.4c-1.858-.036-3.719-.011-5.578-.013H77.807" transform="translate(0 -31.629)" fill="#58585a"/>
    <path id="Path_46" data-name="Path 46" d="M94.489,168.037c-1.8.907-3.542,1.792-5.291,2.666-.709.354-1.425.884-2.23.261-.734-.569-.435-1.382-.378-2.108a6.42,6.42,0,0,0,.216-2.188c-14.184-4.756-21.844-14.507-22.821-29.434-.423-.4-.951-.265-1.437-.269-1.859-.014-3.718.011-5.576,0A2.648,2.648,0,0,1,54,133.994q-.027-8.516,0-17.032a2.646,2.646,0,0,1,2.9-2.919q8.591-.036,17.182,0a2.538,2.538,0,0,1,2.8,2.817c.035,1.808-.005,3.617.015,5.426.005.425-.178.9.326,1.375,1.263-.926,2.542-1.864,3.82-2.8.324-.238.629-.5.968-.715,1.088-.681,2.005-.244,2.113,1.023.08.942.1,1.89.143,2.813a54.851,54.851,0,0,0,10.325.077,11.85,11.85,0,0,1,5.353-8.276,11.488,11.488,0,0,1,17.544,8.559c.472,4.767-1.826,10.751-9.766,12.706,1,1.358,1.954,2.667,2.915,3.974q.356.485.725.963a1.314,1.314,0,0,1,.267,1.529,1.414,1.414,0,0,1-1.509.743,6.7,6.7,0,0,0-2.5.092,54.505,54.505,0,0,0-.121,10.226,3.024,3.024,0,0,0,1.378.484,11.418,11.418,0,0,1,8.646,10.374,11.484,11.484,0,0,1-22.475,4.012,3.341,3.341,0,0,0-.556-1.4m-10.2-41.094c-.058.875-.131,1.664-.157,2.454-.021.664.02,1.344-.731,1.664a1.716,1.716,0,0,1-1.8-.43q-1.376-1.052-2.758-2.094c-.546-.412-1.1-.816-1.63-1.211-.492.489-.326.965-.331,1.392-.018,1.707-.069,3.418.018,5.122a2.733,2.733,0,0,1-3.1,3.141c-1.755-.067-3.515-.034-5.272-.014-.53.006-1.107-.144-1.57.253-.692,12.48,9.815,24.494,20.451,26.455.126-.571.269-1.148.379-1.731.15-.794.224-1.636,1.173-1.924.924-.28,1.362.456,1.869.979,1.216,1.254,2.406,2.532,3.736,3.939,1.041-5.825,4.511-9.137,10.045-10.287V144.418a8.634,8.634,0,0,0-2.875-.225,1.289,1.289,0,0,1-1.153-2,5.725,5.725,0,0,1,.539-.723c1.067-1.445,2.133-2.891,3.286-4.455a12.046,12.046,0,0,1-9.885-10.071Zm-12.885,4.271c.014-3.839.029-7.623-.006-11.369a71.07,71.07,0,0,0-11.744.059v11.327a62.823,62.823,0,0,0,11.75-.017m40.531-5.682a5.906,5.906,0,1,0-5.932,5.9,5.818,5.818,0,0,0,5.932-5.9m-5.966,46.489a5.836,5.836,0,0,0,5.969-5.847,5.91,5.91,0,1,0-5.969,5.847" transform="translate(-37.707 -79.627)" fill="#543071"/>
    <path id="Path_47" data-name="Path 47" d="M85.233,7.025a13.208,13.208,0,0,1,2.936-4A11.614,11.614,0,0,1,95.853.022q4.3-.044,8.592,0c4.9.043,8.5,2.331,11,6.468.077.128.168.248.366.538,1.387,0,2.883.005,4.379,0a7.676,7.676,0,0,1,2.089.209,4.3,4.3,0,0,1,3.344,4.281c.022,3.115-.022,6.231,0,9.346a4.845,4.845,0,0,1-4.867,4.853c-7.989-.076-15.979-.028-23.968-.027-5.477,0-10.957-.1-16.43.039a4.972,4.972,0,0,1-5.279-5.247c.039-2.713-.011-5.427.012-8.14.028-3.367,1.993-5.288,5.4-5.31,1.553-.01,3.107,0,4.743,0m15.315-3.485A4.778,4.778,0,0,0,95.865,8.4a4.754,4.754,0,0,0,9.5-.14,4.726,4.726,0,0,0-4.821-4.719" transform="translate(-52.44 0)" fill="#58585a"/>
  </g>
</svg>
