<?xml version="1.0" encoding="utf-8"?>
<!-- Generator: Adobe Illustrator 16.0.0, SVG Export Plug-In . SVG Version: 6.00 Build 0)  -->
<!DOCTYPE svg PUBLIC "-//W3C//DTD SVG 1.1//EN" "http://www.w3.org/Graphics/SVG/1.1/DTD/svg11.dtd">
<svg version="1.1" id="Layer_1" xmlns="http://www.w3.org/2000/svg" xmlns:xlink="http://www.w3.org/1999/xlink" x="0px" y="0px"
	 width="49.6px" height="38.8px" viewBox="0 0 49.6 38.8" style="enable-background:new 0 0 49.6 38.8;" xml:space="preserve">
<style type="text/css">
<![CDATA[
	.st0{fill:#01718F;}
]]>
</style>
<g>
	<g>
		<path class="st0" d="M46.1,11.7c-0.2-1.5-0.2-4.1,1.2-5c0,0,0,0,0.1-0.1c1.1-0.4,1.9-0.9,1.3-1.6L31.7,0L4.4,3.8
			c0,0-3.1,0.5-2.9,5.3c0.2,2.6,1,3.9,1.7,4.6L1,14.4c-0.6,0.7,0.2,1.2,1.3,1.6c0,0,0,0,0.1,0.1c1.4,0.9,1.4,3.5,1.2,5
			c-5,1.4-3.2,1.9-3.2,1.9l1.1,0.3c-0.8,0.7-1.6,2-1.4,4.6c0.3,4.9,2.9,5.2,2.9,5.2l17.9,5.8l27-6.5c0,0,1.8-0.5-3.2-1.9
			c-0.2-1.5-0.2-4.1,1.2-5c0,0,0,0,0.1-0.1c1.1-0.4,1.9-0.9,1.3-1.6L46,23.3c0.8-0.5,2-1.7,2.1-4.9c0.1-2.2-0.4-3.5-1.1-4.3l2.3-0.6
			C49.3,13.6,51.1,13.1,46.1,11.7L46.1,11.7z M23.5,11.6l4.5-0.9l15.4-3.2l2.3-0.5c-0.7,1.3-0.7,3.2-0.6,4.3c0,0.3,0.1,0.5,0.1,0.7
			l-2.5,0.6l-19.4,4.8L23.5,11.6z M4,16.4l2.3,0.5l14.8,3l1.3,0.3l3.9,0.8l0.2,5.9l-19.9-5l-2-0.5c0-0.2,0.1-0.4,0.1-0.7
			C4.7,19.6,4.7,17.7,4,16.4L4,16.4z M3.1,8.9c0-1.3,0.2-2.2,0.7-2.7C4,5.9,4.4,5.8,4.6,5.8c0.1,0,0.2,0,0.2,0l11.8,3.8l5.9,1.9
			l-0.2,6L5.8,12.9L5,12.7c0,0-0.1,0-0.1,0C4.8,12.7,3.1,12.5,3.1,8.9L3.1,8.9z M20.8,36.2L3.4,31.3c0,0-0.1,0-0.1,0
			c-0.1,0-1.7-0.2-1.8-3.8c0-1.3,0.2-2.2,0.7-2.7c0.3-0.3,0.6-0.4,0.9-0.4c0.1,0,0.2,0,0.2,0c0,0,0,0,0,0L21,30.2L20.8,36.2z
			 M43.6,30c0,0.3,0.1,0.5,0.1,0.7l-21.9,5.4l0.2-5.9l4.7-1l0.7,0.2l2.6-0.8l11.9-2.5l2.3-0.5C43.4,27,43.5,28.9,43.6,30L43.6,30z
			 M44.8,22c0,0-0.1,0-0.1,0L43,22.5l-15.7,4.4l-0.2-6l5.2-1.7l12.5-4.1c0,0,0.7-0.1,1.1,0.3c0.5,0.5,0.7,1.4,0.7,2.7
			C46.5,21.8,44.9,22,44.8,22L44.8,22z M44.8,22"/>
	</g>
</g>
</svg>
