<?xml version="1.0" encoding="utf-8"?>
<!-- Generator: Adobe Illustrator 16.0.0, SVG Export Plug-In . SVG Version: 6.00 Build 0)  -->
<!DOCTYPE svg PUBLIC "-//W3C//DTD SVG 1.1//EN" "http://www.w3.org/Graphics/SVG/1.1/DTD/svg11.dtd">
<svg version="1.1" id="Layer_1" xmlns="http://www.w3.org/2000/svg" xmlns:xlink="http://www.w3.org/1999/xlink" x="0px" y="0px"
	 width="317.1px" height="253.6px" viewBox="0 0 317.1 253.6" style="enable-background:new 0 0 317.1 253.6;" xml:space="preserve"
	>
<style type="text/css">
<![CDATA[
	.st0{fill-rule:evenodd;clip-rule:evenodd;fill:#FFFFFF;}
	.st1{fill-rule:evenodd;clip-rule:evenodd;fill:#FFFFFF;}
]]>
</style>
<g>
	<path class="st0" d="M254.9,198.6c0.5,5,3.1,8.8,6.2,12.3c6.4,7.4,12.7,15,19,22.4c4.3,5.1,8.6,10.3,13,15.2
		c3.8,4.3,8.7,5.8,14.2,4.5c5.1-1.2,8.4-4.7,9.5-9.8c1.3-6.1-1-11-5.6-15c-12.2-10.3-24.3-20.7-36.4-31.1c-3.6-3.1-7.3-5.7-12.3-6.2
		c24.2-30.1,14.7-69.5-9.7-88.1c-24.6-18.7-59.1-16.5-80.8,5.6c-21.7,22.1-23.4,56.7-4.2,81.2C186.6,213.8,225.3,222.4,254.9,198.6z
		 M92.2,99.5c0,30.9,0,61.8,0,92.7c0,5.2,1.5,6.6,6.7,6.7c9.5,0,19,0,28.5,0c4.2,0,5.9-1.6,5.9-5.9c0-62.3,0-124.6,0-186.9
		c0-4.4-1.6-6-6.1-6c-9.3,0-18.6,0-27.9,0c-5.9,0-7.2,1.3-7.2,7.2C92.2,37.9,92.2,68.7,92.2,99.5z M31.8,146.8c0,15.2,0,30.5,0,45.7
		c0,4.9,1.4,6.4,6.3,6.4c9.5,0,19,0,28.5,0c4.7,0,6.2-1.5,6.2-6.2c0-30.5,0-60.9,0-91.4c0-4.5-1.6-6.1-6-6.1c-9.4,0-18.8,0-28.2,0
		c-5.6,0-6.8,1.2-6.8,6.8C31.8,117,31.8,131.9,31.8,146.8z M196.8,227.6c-10.8-2.9-20.7-7.4-29.6-14c-1.6-1.2-3.9-2-5.9-2
		c-50.3-0.1-100.6-0.1-150.9-0.1c-1.6,0-3.2,0.1-4.6,0.4c-3.3,0.8-5.5,3.7-5.7,7.1c-0.2,3.6,1.7,6.8,5,7.9c1.4,0.5,3.1,0.6,4.6,0.6
		c61.7,0,123.3,0,185,0C195.3,227.6,196,227.6,196.8,227.6z M193.7,75.7c0-5.5,0-11,0-16.4c0-4.2-1.7-5.8-6-5.8
		c-9.7,0-19.4,0-29.1,0c-4.2,0-5.8,1.7-5.8,5.9c0,13.5,0,26.9,0,40.4c0,0.7,0.2,1.4,0.3,2.5C167.7,86.5,175.3,81.6,193.7,75.7z"/>
	<path class="st1" d="M254.9,198.6c-29.6,23.8-68.2,15.2-87.1-8.9c-19.2-24.5-17.5-59.1,4.2-81.2c21.7-22.1,56.2-24.3,80.8-5.6
		c24.4,18.6,33.9,58,9.7,88.1c5,0.4,8.7,3.1,12.3,6.2c12.1,10.4,24.3,20.8,36.4,31.1c4.7,4,7,8.9,5.6,15c-1.1,5.1-4.4,8.6-9.5,9.8
		c-5.5,1.4-10.4-0.2-14.2-4.5c-4.4-5-8.7-10.1-13-15.2c-6.3-7.5-12.6-15-19-22.4C257.9,207.3,255.4,203.6,254.9,198.6z M215.4,191.6
		c22.1,0.3,40.2-17.5,40.5-39.9c0.3-21.9-17.4-40.3-39.2-40.6c-22.6-0.3-40.8,17.3-41.2,39.6C175.2,173,193,191.3,215.4,191.6z"/>
	<path class="st1" d="M92.2,99.5c0-30.8,0-61.6,0-92.4c0-5.9,1.3-7.1,7.2-7.2c9.3,0,18.6,0,27.9,0c4.4,0,6.1,1.6,6.1,6
		c0,62.3,0,124.6,0,186.9c0,4.2-1.7,5.9-5.9,5.9c-9.5,0-19,0-28.5,0c-5.2,0-6.7-1.4-6.7-6.7C92.2,161.3,92.2,130.4,92.2,99.5z"/>
	<path class="st1" d="M31.8,146.8c0-14.9,0-29.8,0-44.8c0-5.6,1.2-6.8,6.8-6.8c9.4,0,18.8,0,28.2,0c4.4,0,6,1.6,6,6.1
		c0,30.5,0,60.9,0,91.4c0,4.6-1.5,6.1-6.2,6.2c-9.5,0-19,0-28.5,0c-4.8,0-6.3-1.4-6.3-6.4C31.8,177.2,31.8,162,31.8,146.8z"/>
	<path class="st1" d="M196.8,227.6c-0.7,0-1.5,0-2.2,0c-61.7,0-123.3,0-185,0c-1.5,0-3.2-0.1-4.6-0.6c-3.3-1.1-5.1-4.3-5-7.9
		c0.2-3.3,2.4-6.2,5.7-7.1c1.5-0.4,3.1-0.4,4.6-0.4c50.3,0,100.6,0,150.9,0.1c2,0,4.3,0.8,5.9,2
		C176.1,220.1,185.9,224.7,196.8,227.6z"/>
	<path class="st1" d="M193.7,75.7c-18.5,5.9-26,10.8-40.6,26.6c-0.1-1-0.3-1.7-0.3-2.5c0-13.5,0-26.9,0-40.4c0-4.2,1.6-5.9,5.8-5.9
		c9.7,0,19.4,0,29.1,0c4.3,0,5.9,1.6,6,5.8C193.8,64.7,193.7,70.1,193.7,75.7z"/>
</g>
</svg>
