<?xml version="1.0" encoding="utf-8"?>
<!-- Generator: Adobe Illustrator 16.0.0, SVG Export Plug-In . SVG Version: 6.00 Build 0)  -->
<!DOCTYPE svg PUBLIC "-//W3C//DTD SVG 1.1//EN" "http://www.w3.org/Graphics/SVG/1.1/DTD/svg11.dtd">
<svg version="1.1" id="Layer_1" xmlns="http://www.w3.org/2000/svg" xmlns:xlink="http://www.w3.org/1999/xlink" x="0px" y="0px"
	 width="180.1px" height="221.3px" viewBox="0 0 180.1 221.3" style="enable-background:new 0 0 180.1 221.3;" xml:space="preserve"
	>
<style type="text/css">
<![CDATA[
	.st0{fill-rule:evenodd;clip-rule:evenodd;fill:#01718F;}
]]>
</style>
<g>
	<path class="st0" d="M156.6,114.7c0.2,0.6,0.3,0.7,0.3,0.8c0.1,15.5,0.1,31,0.1,46.5c0,0.9-1.2,2.1-2.1,2.7c-2.6,1.9-5.6,3.3-8,5.3
		c-3,2.4-4.6,5.6-4,9.7c1.1,7,8.2,11.6,15.6,9.6c3.8-1,7.6-2.4,11.1-4.2c9.4-4.8,11.7-9.8,10-20.2c-3-18.3-9.6-35.5-17.6-52.1
		c-5.1-10.6-13.1-17.8-24.2-20.8c-10-2.6-20.4-3.9-30.7-5.8c-2.1-0.4-2.2,1.2-2.7,2.4c-4.4,11.4-8.7,22.7-13.1,34.1
		c-0.3,0.8-0.7,1.6-1.3,2.8c-0.6-1.4-0.9-2.2-1.2-2.9c-4.4-11.4-8.7-22.7-13.1-34.1c-0.5-1.3-0.8-2.6-2.8-2.3
		c-8.8,1.5-17.7,2.5-26.4,4.5c-13.7,3.1-23.8,11.1-29.4,24.3c-1.1,2.7-2.5,5.3-3.6,7.9c-6.3,14.9-11.6,30.1-13.4,46.4
		c-0.6,5.4,1.4,9.5,5.5,12.7c5,4,10.8,6.3,16.9,7.6c5.9,1.2,12-1.9,14-6.8c2.2-5.3,0.7-9.8-4.8-14c-2-1.5-4.1-2.8-6.3-3.8
		c-1.9-0.8-2.4-1.9-2.4-3.9c0.1-14.4,0-28.9,0.1-43.3c0-0.9,0.2-1.8,0.3-2.9c1,0.3,1.6,0.4,2.2,0.6c20.6,7.4,41.1,14.8,61.7,22.1
		c1.7,0.6,3.9,0.7,5.5,0.1c11.7-4,23.3-8.3,35-12.5C137.2,121.6,146.9,118.2,156.6,114.7z M89.9,81.7c22.6,0.1,40.9-18.1,41-40.7
		C131,18.5,112.8,0.1,90.4,0c-22.7-0.1-41,17.9-41.2,40.6C49.1,63.2,67.3,81.6,89.9,81.7z M93,221.3c1.4-0.5,2.3-0.7,3.2-1.1
		c17.5-6.3,35-12.7,52.5-19c4.7-1.7,4.7-1.7,4-7.1c-1.1-0.3-2.2-0.6-3.3-0.9c-11.5-3.8-14.9-16.9-6.4-25.6c2.2-2.3,5-4.1,7.7-5.7
		c1.7-1,2.4-2,2.3-4c-0.1-8.2,0-16.4,0-24.6c0-4.2,0-8.3,0-12.8c-1.5,0.5-2.6,0.8-3.7,1.2c-17.7,6.4-35.4,12.8-53.2,19
		c-2.5,0.9-3.2,2-3.2,4.6c0.1,24.5,0,48.9,0,73.4C92.8,219.4,92.9,220.1,93,221.3z M27.5,194.2c-0.6,5.4-0.6,5.4,4,7.1
		c13.5,4.8,26.9,9.7,40.4,14.5c5,1.8,10,3.7,15.2,5.6c0.2-0.8,0.3-1.2,0.3-1.6c0-25.2-0.1-50.4,0-75.6c0-2.1-1.1-2.7-2.7-3.3
		c-13.3-4.7-26.5-9.5-39.8-14.2c-5.7-2.1-11.5-4.1-17.6-6.3c0,13.3,0,26.1,0.1,38.9c0,0.8,1.2,1.8,2,2.4c2.9,2.3,6.4,4.2,8.8,7
		c7.1,8,3.9,20.3-6.2,24.1C30.5,193.3,29,193.7,27.5,194.2z"/>
	<path class="st0" d="M156.6,114.7c-9.8,3.5-19.4,6.9-29,10.4c-11.6,4.2-23.3,8.4-35,12.5c-1.6,0.6-3.8,0.5-5.5-0.1
		c-20.6-7.3-41.1-14.7-61.7-22.1c-0.6-0.2-1.2-0.3-2.2-0.6c-0.1,1.1-0.3,2-0.3,2.9c0,14.4,0,28.9-0.1,43.3c0,2,0.5,3.1,2.4,3.9
		c2.2,1,4.4,2.3,6.3,3.8c5.5,4.2,7,8.7,4.8,14c-2,4.9-8.1,8-14,6.8c-6.2-1.3-11.9-3.6-16.9-7.6c-4.1-3.2-6-7.3-5.5-12.7
		c1.8-16.2,7.1-31.4,13.4-46.4c1.1-2.7,2.5-5.3,3.6-7.9c5.6-13.2,15.7-21.2,29.4-24.3c8.7-2,17.6-2.9,26.4-4.5c2-0.3,2.3,1,2.8,2.3
		c4.3,11.4,8.7,22.7,13.1,34.1c0.3,0.8,0.6,1.6,1.2,2.9c0.6-1.2,1-2,1.3-2.8c4.4-11.4,8.7-22.7,13.1-34.1c0.5-1.2,0.6-2.8,2.7-2.4
		c10.2,1.9,20.6,3.2,30.7,5.8c11.1,2.9,19.1,10.2,24.2,20.8c8,16.7,14.6,33.8,17.6,52.1c1.7,10.4-0.6,15.4-10,20.2
		c-3.5,1.8-7.3,3.2-11.1,4.2c-7.4,2-14.5-2.6-15.6-9.6c-0.6-4.1,1-7.3,4-9.7c2.5-2,5.4-3.4,8-5.3c0.9-0.6,2.1-1.8,2.1-2.7
		c0.1-15.5,0-31-0.1-46.5C156.9,115.4,156.8,115.3,156.6,114.7z"/>
	<path class="st0" d="M89.9,81.7c-22.6-0.1-40.8-18.5-40.6-41.1C49.4,17.9,67.7-0.1,90.4,0c22.4,0.1,40.5,18.5,40.5,41
		C130.8,63.6,112.5,81.8,89.9,81.7z"/>
	<path class="st0" d="M93,221.3c-0.1-1.1-0.2-1.9-0.2-2.6c0-24.5,0.1-48.9,0-73.4c0-2.6,0.7-3.7,3.2-4.6c17.8-6.2,35.5-12.7,53.2-19
		c1.1-0.4,2.2-0.7,3.7-1.2c0,4.5,0,8.6,0,12.8c0,8.2-0.1,16.4,0,24.6c0,2-0.6,3-2.3,4c-2.7,1.7-5.5,3.5-7.7,5.7
		c-8.5,8.7-5.1,21.8,6.4,25.6c1.1,0.4,2.2,0.6,3.3,0.9c0.7,5.4,0.7,5.4-4,7.1c-17.5,6.3-35,12.6-52.5,19
		C95.2,220.5,94.3,220.8,93,221.3z"/>
	<path class="st0" d="M27.5,194.2c1.4-0.5,3-0.8,4.5-1.4c10-3.9,13.3-16.1,6.2-24.1c-2.4-2.8-5.9-4.6-8.8-7c-0.8-0.7-2-1.6-2-2.4
		c-0.1-12.8-0.1-25.6-0.1-38.9c6.1,2.2,11.8,4.2,17.6,6.3c13.3,4.7,26.5,9.5,39.8,14.2c1.6,0.6,2.8,1.1,2.7,3.3
		c0,25.2,0,50.4,0,75.6c0,0.4-0.1,0.8-0.3,1.6c-5.2-1.9-10.2-3.8-15.2-5.6c-13.5-4.8-26.9-9.7-40.4-14.5
		C26.9,199.6,26.9,199.6,27.5,194.2z"/>
</g>
</svg>
