<?xml version="1.0" encoding="utf-8"?>
<!-- Generator: Adobe Illustrator 16.0.0, SVG Export Plug-In . SVG Version: 6.00 Build 0)  -->
<!DOCTYPE svg PUBLIC "-//W3C//DTD SVG 1.1//EN" "http://www.w3.org/Graphics/SVG/1.1/DTD/svg11.dtd">
<svg version="1.1" id="Layer_1" xmlns="http://www.w3.org/2000/svg" xmlns:xlink="http://www.w3.org/1999/xlink" x="0px" y="0px"
	 width="87.3px" height="70.9px" viewBox="0 0 87.3 70.9" style="enable-background:new 0 0 87.3 70.9;" xml:space="preserve">
<style type="text/css">
<![CDATA[
	.st0{fill:#00718F;}
	.st1{fill-rule:evenodd;clip-rule:evenodd;fill:#00718F;}
]]>
</style>
<g>
	<path class="st0" d="M78.5,19.5v12.8l1.3,1.7v8c-0.9,2.4-5.8,2.5-7.1,0.7v-8l1.4-2v-12L78.5,19.5L78.5,19.5z M66.2,22.8v11.8
		c0,10-48.1,10-48.1,0V22.1l25.5,6.7L66.2,22.8L66.2,22.8z M43.6,26l43.6-11.8v-2.8L43.6,0L0,11.7v2.8C0,14.6,40,25.1,43.6,26
		L43.6,26z"/>
	<path class="st1" d="M54.4,64.3c1.6,1.7,2.7,3.7,2.9,6.3c-2.3-1.5-4.8-2.8-8-3.5c-1.2,1.6-2.8,2.9-4.8,3.8
		c-0.5-2.5-1.5-4.7-3.1-6.4C45,64.5,50.6,64.2,54.4,64.3L54.4,64.3z M14.3,62c9.6-0.8,18.8-1.3,27.5-1.4c-0.3,1-0.8,2.1-1.6,2.8
		c-8.2,0.3-18.7,1.1-24.7,1.8c-1,0.1-2.5,0.2-3.4-0.1c-1.2-0.4-2.3-1.5-3-3c-1.8-3.7-1.9-9.5-0.1-13.3c0.9-1.9,2.5-3.6,5-3.2
		c3,0.4,15.6,1.8,24.9,2.2c3.8,2.3,4.6,7.6,3.4,11.5c-11-0.1-18.1-0.1-26.8,0.3c-0.5,0-1,0-1.4-0.2c-2.9-1.1-3.2-4.6-1.8-7.2
		c0.5-0.9,1.3-0.8,1.7-0.4c0.4,0.5-0.1,1.7-0.3,2.5c-0.6,2.4,2,3.8,2.3,1.8c0.1-0.9,0-2.1-0.2-3.2c-0.5-2.3-2.7-6.3-4.8-3.2
		C7.5,54.3,10.7,65.8,14.3,62L14.3,62z M55.7,60.4c6.9,0.2,14.7,1.1,21.6,2.2c0.6,0.1,0.7,0.3,0.4,0.8c-0.2,0.3-0.6,1.1-0.9,1.3
		c-0.9,0.8-3.7,0-7.8-0.5c-3.9-0.5-9.1-1.1-14.4-1.1C55,62.3,55.4,61.4,55.7,60.4L55.7,60.4z M52,63.1l-9.2,0.2
		c2.5-4.5,2.6-11.6-0.9-15.5l8.5,0c4.6,2.8,4.8,10.1,2.3,14.4C52.5,62.6,52.3,62.9,52,63.1L52,63.1z M53.6,47.7
		c2.6-0.1,5.4-0.2,8.1-0.4c5.8-0.4,11-1,12.1-1.2c1.1-0.2,2,0.1,2.9,0.7c3.3,2.4,3.4,9.5,2.5,13.1c-0.2,0.9-0.8,1.3-1.8,1
		c-7.8-1.2-14.2-1.4-21.4-1.7C56.7,55.2,56.5,51,53.6,47.7L53.6,47.7z"/>
</g>
</svg>
