<?xml version="1.0" encoding="utf-8"?>
<!-- Generator: Adobe Illustrator 16.0.0, SVG Export Plug-In . SVG Version: 6.00 Build 0)  -->
<!DOCTYPE svg PUBLIC "-//W3C//DTD SVG 1.1//EN" "http://www.w3.org/Graphics/SVG/1.1/DTD/svg11.dtd">
<svg version="1.1" id="object" xmlns="http://www.w3.org/2000/svg" xmlns:xlink="http://www.w3.org/1999/xlink" x="0px" y="0px"
	 width="203.4px" height="151.5px" viewBox="0 0 203.4 151.5" style="enable-background:new 0 0 203.4 151.5;" xml:space="preserve"
	>
<style type="text/css">
<![CDATA[
	.st0{fill:#00718F;}
]]>
</style>
<path class="st0" d="M93.6,0L58.3,7.9c-1.1,0.2-2,1.3-2,2.4v14.2c0,1.1-0.9,2.1-2,2.2l-18.9,1.9c-1.1,0.1-2,1.1-2,2.2v13.7
	c0,1.1-0.9,2.1-2,2.3L2,50.9C0.9,51,0,52,0,53.1v95.3c0,1.1,0.9,1.8,2,1.7c0,0,27.9-4.9,37.3-6.3c5.2-0.8,10.9-1.1,16.8-1.1
	c14.3,0,43.7,8.6,43.7,8.6c1.1,0.3,2.8,0.3,3.8,0c0,0,29.5-8.6,43.7-8.6c5.9,0,11.6,0.4,16.8,1.1c9.3,1.3,37.3,6.3,37.3,6.3
	c1.1,0.2,2-0.6,2-1.7V53.1c0-1.1-0.9-2.1-2-2.3l-29.5-4.1c-1.1-0.1-2-1.2-2-2.3V30.8c0-1.1-0.9-2.1-2-2.2L149,26.7
	c-1.1-0.1-2-1.1-2-2.2V10.4c0-1.1-0.9-2.2-2-2.4l-35.3-7.8 M31.4,127H18.5v-22.4h12.9V127z M31.4,99.4H18.5V77h12.9V99.4z M48.9,127
	H36v-22.4h12.9V127z M48.9,99.4H36V77h12.9V99.4z M86.6,133.5H72.4V65.5h14.2V133.5z M86.6,60.8H72.4V36.3h14.2V60.8z M108.8,133.5
	H94.6V65.5h14.2V133.5z M108.8,60.8H94.6V36.3h14.2V60.8z M130.9,133.5h-14.2V65.5h14.2V133.5z M130.9,60.8h-14.2V36.3h14.2V60.8z
	 M167.4,127h-12.9v-22.4h12.9V127z M167.4,99.4h-12.9V77h12.9V99.4z M184.8,127h-12.9v-22.4h12.9V127z M184.8,99.4h-12.9V77h12.9
	V99.4z"/>
</svg>
