<?xml version="1.0" encoding="utf-8"?>
<!-- Generator: Adobe Illustrator 16.0.0, SVG Export Plug-In . SVG Version: 6.00 Build 0)  -->
<!DOCTYPE svg PUBLIC "-//W3C//DTD SVG 1.1//EN" "http://www.w3.org/Graphics/SVG/1.1/DTD/svg11.dtd">
<svg version="1.1" id="Layer_1" xmlns="http://www.w3.org/2000/svg" xmlns:xlink="http://www.w3.org/1999/xlink" x="0px" y="0px"
	 width="219px" height="213.8px" viewBox="0 0 219 213.8" style="enable-background:new 0 0 219 213.8;" xml:space="preserve">
<style type="text/css">
<![CDATA[
	.st0{fill:none;}
	.st1{fill:#FFFFFF;}
]]>
</style>
<g>
	<path class="st0" d="M200.6,178.5c-22.1-37.1-44.3-74.2-66.4-111.4c-1-1.6-1.5-3.7-1.5-5.5c-0.1-14.6-0.1-29.3-0.1-43.9
		c0-0.8,0-1.7,0-2.5c-15.4,0-30.4,0-45.8,0c0,0.9,0,1.6,0,2.3c0,14.2-0.1,28.5,0.1,42.7c0,3-0.7,5.5-2.2,8
		C62.2,105.5,40,142.7,17.7,180c-1,1.6-1.9,3.4-2.1,5.2c-1.2,7.4,4.2,13.3,11.9,13.3c40.6,0,81.3,0,121.9,0c14.2,0,28.5,0,42.7,0
		c7.3,0,12.7-6.2,11.4-13.3C203.1,182.8,201.8,180.6,200.6,178.5z M111,92.5c6.1,0,11,4.9,11,11s-4.9,11-11,11s-11-4.9-11-11
		S105,92.5,111,92.5z M97.7,65.8c3,0,5.5,2.5,5.5,5.5s-2.5,5.5-5.5,5.5s-5.5-2.5-5.5-5.5S94.6,65.8,97.7,65.8z M195.6,188.9
		c-1,1.8-2.7,1.9-4.5,1.9c-27.2,0-54.4,0-81.6,0c-26.8,0-53.6,0-80.4,0c-0.6,0-1.1,0-1.7,0c-3.7-0.1-5.4-3-3.5-6.2
		c3-5.1,6-10.1,9-15.2c9.1-15.2,18.2-30.4,27.2-45.7c0.8-1.4,1.7-1.8,3.2-1.8c30.9,0,61.7,0,92.6,0c1.5,0,2.4,0.5,3.2,1.8
		C171,143.9,183,164,195,184C196,185.6,196.6,187.1,195.6,188.9z"/>
	<path class="st1" d="M214.8,172.6C192.9,135.8,170.9,99,149,62.2c-0.7-1.2-1.1-2.6-1.1-4c-0.1-13.5-0.1-27,0-40.6
		c0-0.8,0.1-1.5,0.1-2.6c5.1,0,10.1,0,15,0c0-5.2,0-10.2,0-15.1C127.2,0,91.8,0,56.3,0c0,5.1,0,10,0,15.2c5.1,0,10,0,15.1,0
		c0,14-0.1,27.6,0.1,41.2c0,2.8-0.7,5.2-2.1,7.6c-21.7,36.2-43.3,72.4-65,108.6c-5.4,9.1-5.9,18.4-0.7,27.6
		c5.2,9.2,13.5,13.6,24.1,13.6c19.4,0,38.8,0,58.2,0c35.2,0,70.3,0,105.5,0c6.1,0,11.6-1.5,16.6-5.1
		C219.5,200.3,222.4,185.3,214.8,172.6z M192.2,198.5c-14.2,0.1-28.5,0-42.7,0c-40.6,0-81.3,0-121.9,0c-7.8,0-13.1-5.9-11.9-13.3
		c0.3-1.8,1.2-3.6,2.1-5.2C40,142.7,62.2,105.5,84.5,68.3c1.5-2.6,2.2-5,2.2-8c-0.1-14.2-0.1-28.5-0.1-42.7c0-0.7,0-1.4,0-2.3
		c15.4,0,30.4,0,45.8,0c0,0.8,0,1.7,0,2.5c0,14.6-0.1,29.3,0.1,43.9c0,1.9,0.6,3.9,1.5,5.5c22.1,37.1,44.3,74.2,66.4,111.4
		c1.2,2.1,2.6,4.3,3,6.7C204.9,192.3,199.5,198.4,192.2,198.5z"/>
	<path class="st1" d="M159.1,123.8c-0.8-1.3-1.6-1.8-3.2-1.8c-30.9,0-61.7,0.1-92.6,0c-1.5,0-2.4,0.4-3.2,1.8
		c-9,15.2-18.2,30.4-27.2,45.7c-3,5-6.1,10.1-9,15.2c-1.9,3.2-0.2,6.1,3.5,6.2c0.6,0,1.1,0,1.7,0c26.8,0,53.6,0,80.4,0
		c27.2,0,54.4,0,81.6,0c1.8,0,3.5-0.1,4.5-1.9c1-1.8,0.3-3.3-0.6-4.9C183,164,171,143.9,159.1,123.8z M126.3,174.6
		c-7.1,0-12.9-5.8-12.9-12.9c0-7.1,5.8-12.9,12.9-12.9s12.9,5.8,12.9,12.9C139.2,168.8,133.4,174.6,126.3,174.6z M152.8,146
		c-3,0-5.5-2.5-5.5-5.5s2.5-5.5,5.5-5.5c3,0,5.5,2.5,5.5,5.5S155.8,146,152.8,146z"/>
	<circle class="st1" cx="111" cy="103.5" r="11"/>
	<circle class="st1" cx="97.7" cy="71.2" r="5.5"/>
</g>
</svg>
