<svg xmlns="http://www.w3.org/2000/svg" width="73.001" height="84" viewBox="0 0 73.001 84">
  <g id="_2" data-name="2" transform="translate(-273 -2164)">
    <g id="Vector_Smart_Object" data-name="Vector Smart Object" transform="translate(-459.435 2004.029)">
      <rect id="Rectangle_1" data-name="Rectangle 1" width="5.615" height="2.801" transform="translate(799.82 194.951)" fill="#316a89"/>
      <rect id="Rectangle_2" data-name="Rectangle 2" width="2.807" height="5.601" transform="translate(742.13 171.593) rotate(-44.996)" fill="#316a89"/>
      <rect id="Rectangle_3" data-name="Rectangle 3" width="5.616" height="2.801" transform="translate(732.435 194.951)" fill="#316a89"/>
      <rect id="Rectangle_4" data-name="Rectangle 4" width="5.614" height="2.801" transform="translate(742.126 221.106) rotate(-45.008)" fill="#316a89"/>
      <rect id="Rectangle_5" data-name="Rectangle 5" width="2.807" height="5.602" transform="translate(789.768 219.139) rotate(-45.004)" fill="#316a89"/>
      <path id="Path_13" data-name="Path 13" d="M768.935,178.144a4.2,4.2,0,1,0,4.211,4.2,4.211,4.211,0,0,0-4.211-4.2m0,5.6a1.4,1.4,0,1,1,1.4-1.4,1.4,1.4,0,0,1-1.4,1.4" fill="#316a89"/>
      <path id="Path_14" data-name="Path 14" d="M768.935,206.155a4.208,4.208,0,0,0-4.212,4.2c0,1.79,2.138,5.07,3.057,6.4a1.405,1.405,0,0,0,2.311,0c.919-1.328,3.056-4.607,3.056-6.4a4.207,4.207,0,0,0-4.211-4.2m0,7.208a10.428,10.428,0,0,1-1.4-3.006,1.4,1.4,0,0,1,2.808,0,10.387,10.387,0,0,1-1.4,3.006" fill="#774592"/>
      <rect id="Rectangle_6" data-name="Rectangle 6" width="2.808" height="5.602" transform="translate(778.762 199.152)" fill="#12a7af"/>
      <rect id="Rectangle_7" data-name="Rectangle 7" width="2.808" height="2.801" transform="translate(782.974 199.152)" fill="#12a7af"/>
      <rect id="Rectangle_8" data-name="Rectangle 8" width="2.808" height="5.602" transform="translate(756.301 199.152)" fill="#12a7af"/>
      <rect id="Rectangle_9" data-name="Rectangle 9" width="2.808" height="2.801" transform="translate(752.089 199.152)" fill="#12a7af"/>
      <rect id="Rectangle_10" data-name="Rectangle 10" width="5.614" height="2.801" transform="translate(789.772 173.579) rotate(-45)" fill="#316a89"/>
      <path id="Path_15" data-name="Path 15" d="M797.012,196.351a27.82,27.82,0,0,0-18.458-26.3c.159.449.3.924.432,1.421a16.4,16.4,0,0,1,.37,1.924,25.175,25.175,0,0,1-2.441,46.866,1.4,1.4,0,0,0-.96,1.329v1.372H761.916V221.59a1.4,1.4,0,0,0-.96-1.33,25.17,25.17,0,0,1-2.423-46.875,16.46,16.46,0,0,1,.369-1.914c.128-.5.274-.976.434-1.429a27.967,27.967,0,0,0-.227,52.539v.382H756.3v2.8h2.808v8.4a9.827,9.827,0,0,0,19.653,0v-8.4h2.808v-2.8h-2.808v-.382a27.982,27.982,0,0,0,18.25-26.229m-23.121,42.768a6.93,6.93,0,0,1-4.956,2.051,7.02,7.02,0,0,1-7.019-7h14.038a6.9,6.9,0,0,1-2.063,4.952m2.063-7.754H761.916v-5.6h14.038Z" fill="#ffbd29"/>
      <path id="Path_16" data-name="Path 16" d="M763.77,166.166a15.783,15.783,0,0,0-2.905,6.307,15.437,15.437,0,0,0-.317,2.451h-.016c-.011.235-.019.47-.02.705v3.335l-4.481,4.471a18.087,18.087,0,0,0-5.345,12.916,1.4,1.4,0,0,0,1.4,1.4h8.423v1.4a1.4,1.4,0,0,0,1.4,1.4h2.263l-.788,2.358a1.4,1.4,0,0,0,1.332,1.843h8.424a1.4,1.4,0,0,0,1.333-1.843l-.788-2.358h2.264a1.4,1.4,0,0,0,1.4-1.4v-1.4h8.424a1.4,1.4,0,0,0,1.4-1.4v-.672a18.165,18.165,0,0,0-6.373-13.825l-3.455-2.955v-3.27c0-.256-.008-.511-.021-.766l0-.065q-.02-.36-.058-.72c0-.03-.007-.06-.01-.091q-.037-.338-.089-.674c-.005-.032-.01-.064-.015-.1-.04-.248-.086-.5-.138-.743a15.678,15.678,0,0,0-1.058-3.217c-.092-.2-.19-.406-.292-.607l-.067-.129a15.327,15.327,0,0,0-1.125-1.844l-.364-.509h0l-4.04-5.643a1.458,1.458,0,0,0-2.284,0l-4.036,5.639.013,0m-3.258,28.784h-6.959a15.271,15.271,0,0,1,4.464-9.535l2.5-2.49Zm16.846-12.362,1.628,1.392a15.373,15.373,0,0,1,5.376,10.969h-7ZM766.67,201.954l.47-1.4h3.592l.469,1.4Zm7.881-4.2H763.32v-2.8h11.231Zm-.023-22.41c0,.1.023.191.023.287v16.52H763.32V175.63c0-.1.02-.191.022-.287Zm-5.592-11.6L772.2,168.3a12.518,12.518,0,0,1,1.932,4.238H763.741a12.482,12.482,0,0,1,1.933-4.238Z" fill="#aa8d68"/>
    </g>
    <path id="Color_Overlay" data-name="Color Overlay" d="M299.674,2238.2v-8.4h-2.809v-2.8h2.809v-.382a27.967,27.967,0,0,1,.226-52.539c-.159.453-.305.927-.433,1.428a16.706,16.706,0,0,0-.37,1.914,25.169,25.169,0,0,0,2.424,46.875,1.4,1.4,0,0,1,.96,1.331v1.372h14.038v-1.372a1.4,1.4,0,0,1,.96-1.329,25.175,25.175,0,0,0,2.441-46.867,16.364,16.364,0,0,0-.371-1.923c-.125-.5-.273-.973-.43-1.422a27.972,27.972,0,0,1,.207,52.532v.382h2.809v2.8h-2.809v8.4a9.826,9.826,0,0,1-19.652,0Zm9.827,7a7.021,7.021,0,0,0,7.018-7H302.481A7.02,7.02,0,0,0,309.5,2245.2Zm-7.02-9.8h14.038v-5.6H302.481Zm27.851-12.226,1.984-1.986,3.962,3.96-1.984,1.986Zm-47.641,1.966,3.97-3.97,1.979,1.98-3.969,3.97Zm25.654-4.351c-.92-1.329-3.056-4.608-3.056-6.4a4.212,4.212,0,0,1,8.423,0c0,1.789-2.137,5.069-3.055,6.4a1.406,1.406,0,0,1-2.312,0Zm-.248-6.4a10.422,10.422,0,0,0,1.4,3.005,10.391,10.391,0,0,0,1.4-3.005,1.4,1.4,0,0,0-2.807,0Zm11.23-5.6v-5.6h2.808v5.6Zm-14.038,0a1.4,1.4,0,0,1-1.332-1.843l.788-2.357h-2.263a1.4,1.4,0,0,1-1.4-1.4v-1.4h-8.423a1.4,1.4,0,0,1-1.4-1.4,18.082,18.082,0,0,1,5.345-12.916l4.481-4.471v-3.334c0-.235.008-.471.019-.706h.017a15.484,15.484,0,0,1,.316-2.451,15.783,15.783,0,0,1,2.906-6.306l-.014-.005,4.036-5.639a1.457,1.457,0,0,1,2.283,0l4.04,5.644h0l.365.509a15.361,15.361,0,0,1,1.123,1.845c.023.043.045.084.067.13.1.2.2.4.292.605a15.765,15.765,0,0,1,1.058,3.218c.052.247.1.494.138.743,0,.034.01.066.015.1.034.224.063.448.088.674l.011.09c.024.24.044.481.057.72l0,.066c.014.255.023.51.023.766v3.27l3.454,2.956a18.167,18.167,0,0,1,6.372,13.824v.672a1.4,1.4,0,0,1-1.4,1.4h-8.422v1.4a1.4,1.4,0,0,1-1.4,1.4h-2.263l.787,2.357a1.4,1.4,0,0,1-1.333,1.843Zm1.946-2.8h4.531l-.47-1.4H307.7Zm-3.35-4.2h11.232v-2.8H303.884Zm14.039-2.8h7a15.37,15.37,0,0,0-5.377-10.969l-1.626-1.392Zm-19.343-9.534a15.268,15.268,0,0,0-4.462,9.534h6.959v-12.024Zm5.3-9.786v16.521h11.232v-16.521c0-.1-.024-.19-.024-.287H303.908C303.9,2179.468,303.884,2179.563,303.884,2179.658Zm2.355-7.327a12.48,12.48,0,0,0-1.932,4.239h10.388a12.566,12.566,0,0,0-1.932-4.239l-3.262-4.555Zm-9.374,36.452v-5.6h2.808v5.6Zm26.674-2.8v-2.8h2.806v2.8Zm-30.885,0v-2.8h2.807v2.8Zm47.732-4.2v-2.8H346v2.8Zm-67.386,0v-2.8h5.617v2.8Zm33.523-12.437a4.218,4.218,0,1,1,2.978,1.231A4.19,4.19,0,0,1,306.523,2189.344Zm1.984-3.961a1.406,1.406,0,1,0,.993-.41A1.4,1.4,0,0,0,308.507,2185.384Zm21.829-7.777,3.971-3.969,1.979,1.98-3.969,3.969Zm-47.641-1.984,1.985-1.985,3.959,3.961-1.985,1.986Z" fill="#e4a613"/>
  </g>
</svg>
