<svg xmlns="http://www.w3.org/2000/svg" width="66" height="72" viewBox="0 0 66 72">
  <g id="_3" data-name="3" transform="translate(-483 -2036)">
    <g id="Vector_Smart_Object" data-name="Vector Smart Object" transform="translate(-258.32 1762.123)">
      <path id="Path_21" data-name="Path 21" d="M779.688,273.878a29.3,29.3,0,0,0-19.25,7.365,24,24,0,0,0-8.431,17.566L741.5,315.453a1.152,1.152,0,0,0,.979,1.769h9.632l.11,10.99a7.263,7.263,0,0,0,7.459,7.192l8.574-.265v9.509a1.265,1.265,0,0,0,.364.861,1.245,1.245,0,0,0,.833.368h.014l34.212-.475a1.17,1.17,0,0,0,1.141-1.169l.13-22.918c.2-1.78.5-3.853.809-6.043,1.219-8.5,2.736-19.08.144-24.492-3.579-9.8-14.591-16.9-26.212-16.9m23.778,41.06c-.32,2.233-.623,4.342-.824,6.174a1.113,1.113,0,0,0-.007.12l-.143,21.833-31.928.41v-8.407l8.609-.265a1.158,1.158,0,1,0-.056-2.314l-19.493.6a4.944,4.944,0,0,1-5.093-4.9l-.122-12.136a1.159,1.159,0,0,0-1.155-1.151h-8.678l9.563-15.143a1.154,1.154,0,0,0,.179-.618,21.658,21.658,0,0,1,7.662-16.174,26.936,26.936,0,0,1,17.709-6.779,27.817,27.817,0,0,1,14.816,4.383,22.642,22.642,0,0,1,9.242,11.047.838.838,0,0,0,.048.113c2.318,4.756.85,14.985-.327,23.2" fill="#aa8d68"/>
      <path id="Path_22" data-name="Path 22" d="M799.032,297.243l-3.273-.319a15.8,15.8,0,0,0-1.624-3.863l2.087-2.517a1.159,1.159,0,0,0-.067-1.554l-3.853-3.9a1.154,1.154,0,0,0-1.559-.077l-2.521,2.092a16.3,16.3,0,0,0-3.86-1.631l-.318-3.262a1.143,1.143,0,0,0-1.152-1.03h-5.526a1.144,1.144,0,0,0-1.152,1.03l-.316,3.269a15.894,15.894,0,0,0-3.868,1.622l-2.513-2.088a1.155,1.155,0,0,0-1.556.07l-3.9,3.9a1.16,1.16,0,0,0-.073,1.559l2.089,2.52a16.348,16.348,0,0,0-1.63,3.86l-3.265.318a1.137,1.137,0,0,0-1.023,1.152v5.525a1.137,1.137,0,0,0,1.023,1.152l3.273.319a15.811,15.811,0,0,0,1.623,3.864l-2.086,2.517a1.157,1.157,0,0,0,.072,1.557l3.9,3.9a1.156,1.156,0,0,0,1.555.072l2.521-2.092a16.357,16.357,0,0,0,3.86,1.631l.317,3.262a1.143,1.143,0,0,0,1.151,1.029h5.526a1.142,1.142,0,0,0,1.152-1.03l.318-3.269a15.834,15.834,0,0,0,3.866-1.622l2.514,2.089a1.156,1.156,0,0,0,1.556-.07l3.9-3.9a1.157,1.157,0,0,0,.073-1.557l-2.088-2.522a16.414,16.414,0,0,0,1.63-3.86l3.218-.317a1.138,1.138,0,0,0,1.022-1.152v-5.525a1.138,1.138,0,0,0-1.023-1.152m-1.29,5.628-2.986.3a1.143,1.143,0,0,0-1.005.9,14.1,14.1,0,0,1-1.96,4.652,1.16,1.16,0,0,0,.081,1.372l1.945,2.346-2.41,2.408-2.345-1.947a1.155,1.155,0,0,0-1.376-.074,13.52,13.52,0,0,1-4.641,1.954,1.138,1.138,0,0,0-.907,1l-.295,3.034h-3.427l-.3-3.034a1.149,1.149,0,0,0-.911-1.013,14.006,14.006,0,0,1-4.649-1.956,1.154,1.154,0,0,0-1.363.085l-2.346,1.948-2.409-2.408,1.943-2.346a1.158,1.158,0,0,0,.073-1.38,13.534,13.534,0,0,1-1.959-4.639,1.132,1.132,0,0,0-1-.906l-3.033-.3v-3.422l3.033-.3a1.146,1.146,0,0,0,1.007-.9,14.128,14.128,0,0,1,1.959-4.652,1.157,1.157,0,0,0-.081-1.371l-1.945-2.347,2.409-2.408,2.346,1.947a1.154,1.154,0,0,0,1.376.075,13.51,13.51,0,0,1,4.64-1.954,1.138,1.138,0,0,0,.908-1l.295-3.033h3.427l.295,3.034a1.149,1.149,0,0,0,.91,1.014,13.983,13.983,0,0,1,4.652,1.957,1.154,1.154,0,0,0,1.363-.085l2.342-1.943,2.371,2.4-1.948,2.351a1.158,1.158,0,0,0-.072,1.38,13.568,13.568,0,0,1,1.958,4.639,1.132,1.132,0,0,0,1,.905l3.03.3Z" fill="#316a89"/>
      <path id="Path_23" data-name="Path 23" d="M780.11,290.205a10.953,10.953,0,1,0,10.954,10.953,10.947,10.947,0,0,0-10.954-10.953m0,19.59a8.637,8.637,0,1,1,8.642-8.637,8.633,8.633,0,0,1-8.642,8.637" fill="#12a7af"/>
    </g>
    <path id="Color_Overlay" data-name="Color Overlay" d="M511.13,2108a1.247,1.247,0,0,1-.834-.368,1.267,1.267,0,0,1-.364-.861v-9.509l-8.574.265a7.263,7.263,0,0,1-7.458-7.193l-.11-10.989h-9.632a1.153,1.153,0,0,1-.979-1.77l10.508-16.646a24,24,0,0,1,8.431-17.565,29.3,29.3,0,0,1,19.25-7.366c11.622,0,22.633,7.106,26.212,16.9,2.591,5.412,1.075,15.99-.145,24.493-.313,2.19-.611,4.263-.809,6.042l-.13,22.918a1.171,1.171,0,0,1-1.141,1.169l-34.213.475Zm10.7-12.84a1.157,1.157,0,0,1-.979,1.767l-8.608.265v8.406l31.928-.41.143-21.833c0-.041,0-.081.006-.12.2-1.833.5-3.941.824-6.174,1.177-8.219,2.645-18.447.327-23.2a.845.845,0,0,1-.048-.114,22.638,22.638,0,0,0-9.242-11.047,27.813,27.813,0,0,0-14.816-4.383,26.937,26.937,0,0,0-17.708,6.78A21.657,21.657,0,0,0,496,2061.268a1.163,1.163,0,0,1-.179.618l-9.564,15.143h8.679a1.159,1.159,0,0,1,1.155,1.151l.122,12.135a4.944,4.944,0,0,0,5.093,4.9l19.494-.6h.052A1.154,1.154,0,0,1,521.833,2095.16Zm-3.937-12.937-.317-3.261a16.392,16.392,0,0,1-3.86-1.631l-2.521,2.092a1.156,1.156,0,0,1-1.555-.072l-3.9-3.9a1.158,1.158,0,0,1-.072-1.558l2.086-2.516a15.8,15.8,0,0,1-1.624-3.864l-3.272-.319a1.138,1.138,0,0,1-1.023-1.153v-5.525a1.139,1.139,0,0,1,1.023-1.153l3.265-.318a16.344,16.344,0,0,1,1.63-3.859l-2.089-2.521a1.158,1.158,0,0,1,.073-1.558l3.9-3.9a1.155,1.155,0,0,1,1.555-.071l2.514,2.088a15.926,15.926,0,0,1,3.868-1.622l.316-3.269a1.145,1.145,0,0,1,1.152-1.031h5.526a1.144,1.144,0,0,1,1.152,1.031l.318,3.262a16.321,16.321,0,0,1,3.86,1.631l2.521-2.092a1.154,1.154,0,0,1,1.559.077l3.854,3.9a1.16,1.16,0,0,1,.067,1.554l-2.086,2.516a15.82,15.82,0,0,1,1.624,3.864l3.272.318a1.139,1.139,0,0,1,1.022,1.153v5.525a1.138,1.138,0,0,1-1.021,1.153l-3.218.317a16.379,16.379,0,0,1-1.631,3.86l2.088,2.522a1.159,1.159,0,0,1-.073,1.558l-3.9,3.9a1.155,1.155,0,0,1-1.555.071l-2.515-2.089a15.869,15.869,0,0,1-3.866,1.622l-.318,3.269a1.141,1.141,0,0,1-1.135,1.03H519.03A1.143,1.143,0,0,1,517.9,2082.223Zm-3.655-7.29a14.013,14.013,0,0,0,4.649,1.957,1.148,1.148,0,0,1,.911,1.012l.3,3.035h3.427l.3-3.034a1.139,1.139,0,0,1,.906-1,13.5,13.5,0,0,0,4.641-1.953,1.156,1.156,0,0,1,1.376.074l2.345,1.947,2.409-2.407-1.945-2.346a1.161,1.161,0,0,1-.082-1.372,14.089,14.089,0,0,0,1.96-4.652,1.142,1.142,0,0,1,1.005-.9l2.986-.3v-3.424l-3.03-.3a1.134,1.134,0,0,1-1-.906,13.571,13.571,0,0,0-1.957-4.639,1.157,1.157,0,0,1,.072-1.38l1.948-2.352-2.371-2.4-2.342,1.943a1.153,1.153,0,0,1-1.363.085,13.986,13.986,0,0,0-4.652-1.957,1.148,1.148,0,0,1-.91-1.014l-.3-3.034H520.1l-.3,3.033a1.14,1.14,0,0,1-.908,1.005,13.509,13.509,0,0,0-4.639,1.953,1.151,1.151,0,0,1-1.376-.075l-2.346-1.947L508.122,2052l1.945,2.347a1.158,1.158,0,0,1,.081,1.372,14.1,14.1,0,0,0-1.959,4.652,1.146,1.146,0,0,1-1.007.9l-3.032.3v3.421l3.032.3a1.131,1.131,0,0,1,1,.906,13.524,13.524,0,0,0,1.959,4.638,1.159,1.159,0,0,1-.073,1.381l-1.943,2.345,2.409,2.408,2.346-1.948a1.153,1.153,0,0,1,1.364-.085Zm-3.377-11.643a10.94,10.94,0,1,1,10.946,10.943A10.948,10.948,0,0,1,510.863,2063.29Zm2.314-.019a8.627,8.627,0,1,0,8.632-8.627H521.8A8.632,8.632,0,0,0,513.177,2063.271Z" fill="#be3e7b"/>
  </g>
</svg>
