<svg xmlns="http://www.w3.org/2000/svg" width="54" height="87" viewBox="0 0 54 87">
  <g id="_4" data-name="4" transform="translate(-701 -2158)">
    <g id="Vector_Smart_Object" data-name="Vector Smart Object" transform="translate(325.88 2108.451)">
      <path id="Path_27" data-name="Path 27" d="M402.293,80.56a10.829,10.829,0,0,1-.657-3.719c0-3.843,1.578-5.782,3.248-7.835,1.715-2.107,3.659-4.5,3.659-8.866a9.759,9.759,0,0,1,2.688-7.1c-.041,2.655.285,5.55,1.659,7.012a3.084,3.084,0,0,0,2.295,1,1.5,1.5,0,0,1,1.063.288c.465.471.434,1.847.406,3.06-.04,1.763-.084,3.761,1.191,5.054a4.228,4.228,0,0,0,3.137,1.124c2.026,0,2.708,4.3,2.708,6.257a10.809,10.809,0,0,1-.659,3.719H425.7a13.317,13.317,0,0,0,.531-3.719c0-3.261-1.107-8.78-5.254-8.78a1.846,1.846,0,0,1-1.317-.365c-.527-.534-.494-1.969-.465-3.234.04-1.795.082-3.649-1.132-4.881a3.885,3.885,0,0,0-2.883-1.046.538.538,0,0,1-.433-.2c-.789-.839-1.142-3.555-.9-6.92a1.725,1.725,0,0,0-.882-1.634,1.752,1.752,0,0,0-1.866.079A12.089,12.089,0,0,0,406,60.141c0,3.481-1.434,5.242-3.094,7.283-1.787,2.2-3.811,4.684-3.811,9.418a13.326,13.326,0,0,0,.531,3.719Z" fill="#ffbd29"/>
      <path id="Path_28" data-name="Path 28" d="M418.5,78.621a3.886,3.886,0,0,0-2.884-1.046.532.532,0,0,1-.42-.19c-.56-.578-1.108-2.464-.964-6.024a2.18,2.18,0,0,0-1.246-2.054,2.214,2.214,0,0,0-2.392.314,11.936,11.936,0,0,0-4.124,8.433,1.272,1.272,0,0,0,2.538.186,9.577,9.577,0,0,1,2.658-6.154c-.051,3.466.518,5.834,1.7,7.048a3.082,3.082,0,0,0,2.256.964,1.493,1.493,0,0,1,1.063.288.807.807,0,0,1,.129.174h2.673a3.785,3.785,0,0,0-.981-1.939" fill="#ffbd29"/>
      <path id="Path_29" data-name="Path 29" d="M428.717,88.228l-2.354-4.04a2.964,2.964,0,0,0-1.373-1.217H400.581a2.964,2.964,0,0,0-1.37,1.217l-2.353,4.039a2.888,2.888,0,0,0,0,2.942,2.944,2.944,0,0,0,2.57,1.47h5.107a3.287,3.287,0,0,0-1.671,2.41l-.232,1.644A2.789,2.789,0,0,1,401.3,98.7l-6.039,3.622a10.842,10.842,0,0,0-3.987,4.179h-3.1a2.232,2.232,0,0,0-1.947-1.137h-8.878a2.22,2.22,0,0,0-2.228,2.207v10.5a1.273,1.273,0,0,0,2.547,0V107.885h8.241v20.37h-8.241v-4.42a1.273,1.273,0,0,0-2.547,0v4.735a2.22,2.22,0,0,0,2.228,2.207h8.878a2.23,2.23,0,0,0,2.026-1.293h8.367a5.317,5.317,0,0,1,3.257,1.153,7.339,7.339,0,0,0,4.527,1.539h3.437a4.864,4.864,0,0,0,9.677,0h.685a4.3,4.3,0,0,0,4.325-4.108,4.179,4.179,0,0,0-.895-2.7,4.339,4.339,0,0,0,2.658-3.98,4.4,4.4,0,0,0-1.348-3.176,4.416,4.416,0,0,0,0-6.354,4.408,4.408,0,0,0,1.348-3.177,4.463,4.463,0,0,0-4.477-4.438h-2.27a38.942,38.942,0,0,1,1.7-11.028l.176-.575h6.726a2.944,2.944,0,0,0,2.57-1.47,2.888,2.888,0,0,0,0-2.941m-16.039,45.8a2.314,2.314,0,0,1-2.271-1.849h4.541a2.313,2.313,0,0,1-2.27,1.849m7.132-27.261a1.912,1.912,0,0,1,.745,3.682,1.523,1.523,0,0,0,0,2.817,1.909,1.909,0,0,1,0,3.536,1.523,1.523,0,0,0,0,2.817,1.913,1.913,0,0,1,1.189,1.768,1.862,1.862,0,0,1-1.837,1.824l-1.094.059a1.528,1.528,0,0,0-.21,3.03,1.693,1.693,0,0,1,1.38,1.706,1.8,1.8,0,0,1-1.781,1.65H404.4a4.808,4.808,0,0,1-2.964-1.007,7.844,7.844,0,0,0-4.82-1.686h-8.166V109.024h3.5a1.739,1.739,0,0,0,1.491-1.2,8.328,8.328,0,0,1,3.133-3.348l6.04-3.622a5.3,5.3,0,0,0,2.538-3.813l.233-1.643a.76.76,0,0,1,.6-.637.769.769,0,0,1,.592.119q.317,1.233.556,2.483a9.976,9.976,0,0,1-1.265,5.059l-1.014,1.817a11.4,11.4,0,0,0-1.174.035,1.264,1.264,0,0,0-1.144,1.377,1.317,1.317,0,0,0,1.39,1.134ZM408.594,92.64h8.169a41.429,41.429,0,0,0-1.767,11.6H410.36a41.428,41.428,0,0,0-1.4-10.338c0-.012-.006-.023-.01-.033-.11-.413-.228-.823-.351-1.232m17.553-2.523H399.428a.416.416,0,0,1-.366-.627l2.354-4.04a.423.423,0,0,1,.366-.208h22.01a.423.423,0,0,1,.366.208l2.354,4.04a.4.4,0,0,1-.365.627" fill="#aa8d68"/>
    </g>
    <path id="Color_Overlay" data-name="Color Overlay" d="M733.72,2240.628h-3.437a7.343,7.343,0,0,1-4.527-1.54,5.315,5.315,0,0,0-3.256-1.153h-8.368a2.229,2.229,0,0,1-2.026,1.293h-8.877a2.22,2.22,0,0,1-2.228-2.208v-4.735a1.273,1.273,0,0,1,2.546,0v4.42h8.241v-20.37h-8.241v10.185a1.273,1.273,0,0,1-2.546,0v-10.5a2.221,2.221,0,0,1,2.228-2.208h8.877a2.232,2.232,0,0,1,1.948,1.138h3.1a10.839,10.839,0,0,1,3.987-4.18l6.039-3.622a2.79,2.79,0,0,0,1.336-2.007l.232-1.643a3.286,3.286,0,0,1,1.67-2.409h-5.107a2.944,2.944,0,0,1-2.57-1.47,2.889,2.889,0,0,1,0-2.941l2.354-4.039a2.96,2.96,0,0,1,1.37-1.217h24.41a2.965,2.965,0,0,1,1.372,1.217l2.354,4.04a2.886,2.886,0,0,1,0,2.94,2.943,2.943,0,0,1-2.57,1.47H745.3l-.175.575a38.947,38.947,0,0,0-1.7,11.028h2.27a4.463,4.463,0,0,1,4.478,4.439,4.415,4.415,0,0,0,0,6.352,4.416,4.416,0,0,0,0,6.353,4.337,4.337,0,0,1-2.658,3.98,4.177,4.177,0,0,1,.895,2.7,4.3,4.3,0,0,1-4.325,4.108H743.4a4.863,4.863,0,0,1-9.677,0Zm4.838,1.849a2.314,2.314,0,0,0,2.271-1.849h-4.541A2.314,2.314,0,0,0,738.558,2242.478Zm-24.225-7.064H722.5a7.842,7.842,0,0,1,4.82,1.686,4.809,4.809,0,0,0,2.964,1.006h13.8a1.8,1.8,0,0,0,1.781-1.65,1.693,1.693,0,0,0-1.38-1.707,1.528,1.528,0,0,1,.21-3.029l1.094-.059a1.862,1.862,0,0,0,1.837-1.824,1.912,1.912,0,0,0-1.189-1.768,1.523,1.523,0,0,1,0-2.817,1.909,1.909,0,0,0,0-3.536,1.524,1.524,0,0,1,0-2.818,1.912,1.912,0,0,0-.744-3.682l-15.881.023a1.318,1.318,0,0,1-1.39-1.134,1.265,1.265,0,0,1,1.143-1.378,11.39,11.39,0,0,1,1.174-.034l1.015-1.817a9.978,9.978,0,0,0,1.264-5.059q-.236-1.25-.555-2.484a.775.775,0,0,0-.593-.119.759.759,0,0,0-.6.636l-.233,1.644a5.3,5.3,0,0,1-2.538,3.813l-6.041,3.623a8.323,8.323,0,0,0-3.133,3.348,1.739,1.739,0,0,1-1.491,1.2h-3.5Zm20.492-33.09c0,.01.006.021.01.033a41.415,41.415,0,0,1,1.4,10.337h4.637a41.449,41.449,0,0,1,1.767-11.6h-8.169C734.6,2201.5,734.715,2201.91,734.825,2202.323ZM727.3,2193.9l-2.354,4.04a.416.416,0,0,0,.365.627h26.719a.4.4,0,0,0,.365-.627l-2.354-4.04a.422.422,0,0,0-.365-.209h-22.01A.425.425,0,0,0,727.3,2193.9Zm21.614-4.89a10.819,10.819,0,0,0,.659-3.718c0-1.96-.682-6.258-2.708-6.258a4.225,4.225,0,0,1-3.136-1.124c-1.275-1.292-1.231-3.291-1.191-5.054.028-1.213.059-2.588-.406-3.06a1.5,1.5,0,0,0-1.064-.288,3.082,3.082,0,0,1-2.294-1c-1.375-1.462-1.7-4.356-1.66-7.012a9.76,9.76,0,0,0-2.688,7.1c0,4.37-1.944,6.759-3.659,8.866-1.669,2.053-3.246,3.992-3.247,7.835a10.833,10.833,0,0,0,.657,3.718H725.5a13.33,13.33,0,0,1-.531-3.718c0-4.734,2.024-7.222,3.812-9.418,1.66-2.04,3.093-3.8,3.093-7.283a12.089,12.089,0,0,1,5.108-10.282,1.752,1.752,0,0,1,1.866-.078,1.723,1.723,0,0,1,.881,1.635c-.24,3.365.113,6.08.9,6.919a.538.538,0,0,0,.432.2,3.887,3.887,0,0,1,2.884,1.046c1.213,1.231,1.172,3.086,1.131,4.881-.028,1.265-.061,2.7.465,3.235a1.849,1.849,0,0,0,1.317.365c4.147,0,5.254,5.519,5.254,8.78a13.316,13.316,0,0,1-.531,3.718Zm-6.223,0a.779.779,0,0,0-.13-.174,1.493,1.493,0,0,0-1.063-.288,3.083,3.083,0,0,1-2.255-.964c-1.178-1.213-1.746-3.582-1.7-7.048a9.577,9.577,0,0,0-2.658,6.154,1.272,1.272,0,0,1-2.538-.186,11.933,11.933,0,0,1,4.125-8.433,2.213,2.213,0,0,1,2.392-.314,2.179,2.179,0,0,1,1.246,2.054c-.143,3.56.4,5.446.964,6.024a.534.534,0,0,0,.42.19,3.888,3.888,0,0,1,2.885,1.046,3.793,3.793,0,0,1,.981,1.939Z" fill="#1937cb"/>
  </g>
</svg>
