<svg xmlns="http://www.w3.org/2000/svg" width="78" height="78" viewBox="0 0 78 78">
  <g id="_5" data-name="5" transform="translate(-918 -2037)">
    <g id="Vector_Smart_Object" data-name="Vector Smart Object" transform="translate(543.198 1859.821)">
      <path id="Path_33" data-name="Path 33" d="M452.113,210.56l-4.741-2.053c-.189-.827-.41-1.654-.661-2.469l3.08-4.148a1.145,1.145,0,0,0,.072-1.253l-4.57-7.916a1.143,1.143,0,0,0-1.121-.564l-5.139.6c-.578-.622-1.182-1.226-1.8-1.8l.6-5.138a1.145,1.145,0,0,0-.564-1.122l-7.916-4.57a1.144,1.144,0,0,0-1.252.072l-4.148,3.08c-.815-.252-1.642-.473-2.469-.661l-2.053-4.742a1.143,1.143,0,0,0-1.049-.689h-9.14a1.144,1.144,0,0,0-1.049.689l-2.052,4.742c-.828.189-1.655.41-2.469.661l-4.149-3.08a1.144,1.144,0,0,0-1.253-.072l-7.915,4.57a1.142,1.142,0,0,0-.564,1.121l.6,5.14c-.623.578-1.226,1.182-1.8,1.8l-5.14-.6a1.142,1.142,0,0,0-1.121.564l-4.57,7.916a1.141,1.141,0,0,0,.072,1.252l3.079,4.149c-.251.816-.473,1.643-.661,2.47l-4.741,2.053a1.144,1.144,0,0,0-.689,1.049v9.141a1.143,1.143,0,0,0,.689,1.049l4.741,2.053c.189.827.41,1.655.661,2.469l-3.079,4.149a1.143,1.143,0,0,0-.072,1.253l4.57,7.915a1.143,1.143,0,0,0,1.121.564l5.14-.6q.868.934,1.8,1.8l-.6,5.14a1.142,1.142,0,0,0,.564,1.121l7.915,4.57a1.143,1.143,0,0,0,1.253-.072l4.149-3.08c.815.252,1.643.473,2.469.661l2.052,4.742a1.144,1.144,0,0,0,1.049.689h9.14a1.143,1.143,0,0,0,1.049-.689l2.053-4.742c.827-.189,1.654-.409,2.469-.661l4.148,3.08a1.143,1.143,0,0,0,1.253.072l7.916-4.57a1.144,1.144,0,0,0,.564-1.121l-.6-5.14c.622-.578,1.226-1.182,1.8-1.8l5.138.6a1.144,1.144,0,0,0,1.122-.564l4.57-7.915a1.145,1.145,0,0,0-.072-1.253l-3.08-4.149c.251-.815.472-1.641.661-2.469l4.741-2.053a1.143,1.143,0,0,0,.689-1.049v-9.141a1.144,1.144,0,0,0-.689-1.049m-1.6,9.439-4.59,1.987a1.146,1.146,0,0,0-.664.815,31.915,31.915,0,0,1-.9,3.376,1.144,1.144,0,0,0,.169,1.036l2.981,4.016-3.82,6.616-4.974-.578a1.146,1.146,0,0,0-.983.372,32.267,32.267,0,0,1-2.47,2.471,1.141,1.141,0,0,0-.372.982l.578,4.974-6.615,3.82-4.016-2.98a1.139,1.139,0,0,0-1.036-.169,32.118,32.118,0,0,1-3.376.9,1.142,1.142,0,0,0-.815.664l-1.987,4.59h-7.639L408,248.3a1.143,1.143,0,0,0-.815-.664,32.13,32.13,0,0,1-3.377-.9,1.139,1.139,0,0,0-1.035.169l-4.016,2.98-6.616-3.82.578-4.974a1.141,1.141,0,0,0-.372-.982,32.5,32.5,0,0,1-2.471-2.471,1.144,1.144,0,0,0-.982-.372l-4.974.578-3.82-6.616,2.98-4.015a1.145,1.145,0,0,0,.168-1.037,32.059,32.059,0,0,1-.9-3.376,1.144,1.144,0,0,0-.664-.815L377.088,220v-7.64l4.59-1.987a1.144,1.144,0,0,0,.664-.815,32.154,32.154,0,0,1,.9-3.376,1.14,1.14,0,0,0-.169-1.035l-2.98-4.016,3.82-6.616,4.974.578a1.144,1.144,0,0,0,.982-.372,32.369,32.369,0,0,1,2.471-2.47,1.145,1.145,0,0,0,.372-.983l-.578-4.974,6.616-3.82,4.015,2.98a1.14,1.14,0,0,0,1.036.168,32.073,32.073,0,0,1,3.377-.9,1.142,1.142,0,0,0,.814-.665l1.988-4.59h7.639l1.987,4.59a1.145,1.145,0,0,0,.815.664,31.922,31.922,0,0,1,3.377.9,1.138,1.138,0,0,0,1.035-.169l4.016-2.98,6.615,3.82-.578,4.974a1.147,1.147,0,0,0,.372.983,32.372,32.372,0,0,1,2.47,2.47,1.146,1.146,0,0,0,.983.372l4.974-.578,3.82,6.616-2.981,4.016a1.141,1.141,0,0,0-.168,1.036,32.175,32.175,0,0,1,.9,3.376,1.144,1.144,0,0,0,.665.815l4.59,1.987Z" fill="#aa8d68"/>
      <path id="Path_34" data-name="Path 34" d="M413.8,186.32a29.863,29.863,0,0,0-19.366,7.134,1.142,1.142,0,1,0,1.483,1.738,27.586,27.586,0,1,1-3.1,3.1,1.143,1.143,0,1,0-1.739-1.483A29.857,29.857,0,1,0,413.8,186.32" fill="#316a89"/>
      <path id="Path_35" data-name="Path 35" d="M425.228,212.751a3.428,3.428,0,0,0-1.143,6.66v0a3.532,3.532,0,0,0,2.285,0,3.43,3.43,0,0,0-1.143-6.663m0,4.57a1.143,1.143,0,1,1,1.143-1.143,1.143,1.143,0,0,1-1.143,1.143" fill="#774592"/>
      <path id="Path_36" data-name="Path 36" d="M413.8,200.03a3.427,3.427,0,0,0-1.143,6.659,3.529,3.529,0,0,0,2.285,0h0a3.427,3.427,0,0,0-1.143-6.659m0,4.571a1.143,1.143,0,1,1,1.143-1.143A1.143,1.143,0,0,1,413.8,204.6" fill="#ffbd29"/>
      <path id="Path_37" data-name="Path 37" d="M402.377,212.751a3.427,3.427,0,0,0-1.143,6.658,3.527,3.527,0,0,0,2.285,0,3.427,3.427,0,0,0-1.143-6.658m0,4.57a1.143,1.143,0,1,1,1.143-1.143,1.144,1.144,0,0,1-1.143,1.143" fill="#774592"/>
      <path id="Path_38" data-name="Path 38" d="M413.8,190.89a25.289,25.289,0,1,0,25.289,25.289A25.318,25.318,0,0,0,413.8,190.89m8,46.859v-7.385l4.236-4.236a1.145,1.145,0,0,0,.334-.808v-3.7h-2.286v3.229l-4.235,4.236a1.144,1.144,0,0,0-.335.807v8.575a22.9,22.9,0,0,1-4.57.689V208.894H412.66v30.261a22.894,22.894,0,0,1-4.57-.689V229.89a1.142,1.142,0,0,0-.335-.807l-4.236-4.236v-3.233h-2.285v3.706a1.145,1.145,0,0,0,.334.808l4.236,4.235v7.385a23,23,0,1,1,16,0" fill="#12a7af"/>
    </g>
    <path id="Color_Overlay" data-name="Color Overlay" d="M952.43,2115a1.143,1.143,0,0,1-1.049-.688l-2.052-4.742c-.827-.188-1.654-.408-2.47-.66l-4.149,3.08a1.143,1.143,0,0,1-1.253.072l-7.915-4.57a1.142,1.142,0,0,1-.564-1.121l.6-5.139q-.934-.868-1.8-1.8l-5.139.6a1.142,1.142,0,0,1-1.121-.564l-4.57-7.915a1.146,1.146,0,0,1,.072-1.254l3.079-4.148c-.25-.814-.472-1.642-.661-2.47l-4.741-2.053a1.143,1.143,0,0,1-.689-1.049v-9.14a1.145,1.145,0,0,1,.689-1.049l4.741-2.052c.188-.828.41-1.654.661-2.471l-3.079-4.148a1.143,1.143,0,0,1-.072-1.252l4.57-7.916a1.142,1.142,0,0,1,1.121-.564l5.139.6c.579-.622,1.182-1.226,1.8-1.8l-.6-5.14a1.139,1.139,0,0,1,.564-1.12l7.915-4.57a1.144,1.144,0,0,1,1.253.072l4.149,3.08c.815-.252,1.642-.472,2.47-.661l2.052-4.741a1.143,1.143,0,0,1,1.049-.689h9.14a1.144,1.144,0,0,1,1.049.689l2.053,4.741c.827.188,1.654.41,2.47.661l4.148-3.08a1.145,1.145,0,0,1,1.253-.072l7.916,4.57a1.146,1.146,0,0,1,.564,1.122l-.6,5.138c.622.579,1.226,1.183,1.8,1.8l5.139-.6a1.141,1.141,0,0,1,1.121.564l4.57,7.916a1.143,1.143,0,0,1-.072,1.253l-3.08,4.148c.252.815.473,1.642.661,2.47l4.741,2.052a1.145,1.145,0,0,1,.689,1.049v9.14a1.143,1.143,0,0,1-.689,1.049l-4.741,2.053c-.189.828-.41,1.655-.661,2.47l3.08,4.148a1.145,1.145,0,0,1,.072,1.254l-4.57,7.915a1.141,1.141,0,0,1-1.121.564l-5.139-.6c-.578.623-1.182,1.226-1.8,1.8l.6,5.139a1.146,1.146,0,0,1-.564,1.121l-7.916,4.57a1.144,1.144,0,0,1-1.254-.072l-4.147-3.08c-.815.252-1.643.472-2.47.66l-2.053,4.742a1.144,1.144,0,0,1-1.049.688ZM947,2106.557a32.148,32.148,0,0,0,3.377.9,1.142,1.142,0,0,1,.815.663l1.986,4.59h7.639l1.987-4.59a1.142,1.142,0,0,1,.815-.663,32.088,32.088,0,0,0,3.377-.9,1.14,1.14,0,0,1,1.036.169l4.017,2.98,6.615-3.82-.578-4.974a1.141,1.141,0,0,1,.373-.982,32.123,32.123,0,0,0,2.47-2.47,1.146,1.146,0,0,1,.983-.373l4.974.579,3.82-6.616-2.981-4.016a1.144,1.144,0,0,1-.169-1.036,31.832,31.832,0,0,0,.9-3.377,1.147,1.147,0,0,1,.665-.814l4.59-1.987v-7.639l-4.59-1.987a1.145,1.145,0,0,1-.665-.815,32.232,32.232,0,0,0-.9-3.375,1.14,1.14,0,0,1,.167-1.036l2.981-4.016-3.82-6.616-4.974.578a1.146,1.146,0,0,1-.983-.373,32.432,32.432,0,0,0-2.47-2.47,1.146,1.146,0,0,1-.373-.983l.578-4.973-6.615-3.82-4.017,2.981a1.136,1.136,0,0,1-1.035.168,32.065,32.065,0,0,0-3.378-.9,1.145,1.145,0,0,1-.815-.664l-1.987-4.59H953.18l-1.987,4.589a1.143,1.143,0,0,1-.815.665,32.108,32.108,0,0,0-3.377.9,1.141,1.141,0,0,1-1.036-.168l-4.015-2.981-6.616,3.82.578,4.973a1.143,1.143,0,0,1-.372.983,32.288,32.288,0,0,0-2.471,2.47,1.144,1.144,0,0,1-.982.373l-4.974-.578-3.82,6.616,2.98,4.016a1.141,1.141,0,0,1,.169,1.035,32.168,32.168,0,0,0-.9,3.376,1.141,1.141,0,0,1-.663.815l-4.59,1.987v7.639l4.59,1.987a1.143,1.143,0,0,1,.663.814,32.277,32.277,0,0,0,.9,3.377,1.145,1.145,0,0,1-.168,1.037l-2.98,4.015,3.82,6.616,4.974-.579a1.144,1.144,0,0,1,.982.373,32.3,32.3,0,0,0,2.471,2.47,1.14,1.14,0,0,1,.372.982l-.578,4.974,6.616,3.82,4.016-2.98a1.138,1.138,0,0,1,1.035-.169ZM927.141,2076a29.868,29.868,0,0,1,7.133-19.366,1.143,1.143,0,0,1,1.74,1.483,27.566,27.566,0,1,0,3.1-3.1,1.143,1.143,0,1,1-1.483-1.739A29.858,29.858,0,1,1,927.141,2076Zm4.569,0A25.289,25.289,0,1,1,957,2101.289,25.318,25.318,0,0,1,931.711,2076Zm26.432-7.285v30.261a22.957,22.957,0,0,0,4.57-.689v-8.575a1.141,1.141,0,0,1,.335-.807l4.235-4.236v-3.228h2.285v3.7a1.146,1.146,0,0,1-.334.808L965,2090.184v7.385a23,23,0,1,0-16,0v-7.385l-4.236-4.235a1.147,1.147,0,0,1-.335-.808v-3.706h2.285v3.233l4.236,4.236a1.142,1.142,0,0,1,.335.807v8.575a22.947,22.947,0,0,0,4.57.689v-30.261Zm9.14,10.521v0a3.428,3.428,0,0,1,1.143-6.66,3.43,3.43,0,0,1,1.142,6.664,3.3,3.3,0,0,1-1.116.192A3.762,3.762,0,0,1,967.283,2079.236Zm0-3.236a1.143,1.143,0,1,0,1.143-1.143A1.143,1.143,0,0,0,967.283,2076Zm-22.852,3.231a3.428,3.428,0,0,1,1.143-6.659,3.427,3.427,0,0,1,1.142,6.659,3.279,3.279,0,0,1-1.116.192A3.762,3.762,0,0,1,944.431,2079.231Zm0-3.231a1.143,1.143,0,1,0,1.143-1.143A1.144,1.144,0,0,0,944.431,2076Zm11.426-9.49a3.428,3.428,0,0,1,1.143-6.659,3.428,3.428,0,0,1,1.142,6.659h0a3.749,3.749,0,0,1-1.167.191A3.289,3.289,0,0,1,955.858,2066.511Zm0-3.231a1.143,1.143,0,1,0,1.143-1.142A1.144,1.144,0,0,0,955.858,2063.28Z" fill="#159888"/>
  </g>
</svg>
