<svg xmlns="http://www.w3.org/2000/svg" width="66" height="65" viewBox="0 0 66 65">
  <g id="_6" data-name="6" transform="translate(-1145 -2043)">
    <g id="Vector_Smart_Object" data-name="Vector Smart Object" transform="translate(802.196 1785.558)">
      <path id="Path_45" data-name="Path 45" d="M342.95,263.4l4.4,7.579a1.1,1.1,0,0,0,.687.514l4.1,1.01,14.074,13.86,1.555-1.531-14.294-14.076a1.1,1.1,0,0,0-.511-.285l-3.942-.975-3.745-6.457,3.21-3.162,6.56,3.692.99,3.882a1.076,1.076,0,0,0,.289.5l14.294,14.077,1.555-1.531L358.1,266.641l-1.026-4.039a1.09,1.09,0,0,0-.521-.679l-7.7-4.33a1.112,1.112,0,0,0-1.319.173l-4.4,4.332a1.07,1.07,0,0,0-.188,1.3" fill="#aa8d68"/>
      <path id="Path_46" data-name="Path 46" d="M387.886,279.549l-22.635,22.292a1.112,1.112,0,0,1-1.554,0h0a1.07,1.07,0,0,1,0-1.531l22.635-22.291a1.109,1.109,0,0,1,1.555,0,1.071,1.071,0,0,1,0,1.531" fill="#12a7af"/>
      <path id="Path_47" data-name="Path 47" d="M360.24,303.449a1.1,1.1,0,0,0-.943-.525h-6.6a1.1,1.1,0,0,0-.942.525l-3.3,5.415a1.069,1.069,0,0,0,0,1.115l3.3,5.414a1.1,1.1,0,0,0,.942.525h6.6a1.1,1.1,0,0,0,.943-.525l3.3-5.414a1.067,1.067,0,0,0,0-1.115Zm-1.565,10.3h-5.352l-2.64-4.331,2.64-4.331h5.352l2.639,4.331Z" fill="#ffbd29"/>
      <path id="Path_48" data-name="Path 48" d="M398.881,312.668h0a1.11,1.11,0,0,1-1.554,0l-9.44-9.3a1.068,1.068,0,0,1,0-1.53,1.109,1.109,0,0,1,1.554,0l9.44,9.3a1.07,1.07,0,0,1,0,1.531" fill="#316a89"/>
      <path id="Path_49" data-name="Path 49" d="M372.722,303.144h0l.017-.017,1.951-1.921,1.552-1.529-.007-.007,9.357-9.2,4.608-4.539,2.805-2.762a13.151,13.151,0,0,0,15.769-12.643,12.8,12.8,0,0,0-.4-3.228,1.106,1.106,0,0,0-1.844-.5l-6.844,6.736-5.431-1.783-1.811-5.347,6.844-6.742a1.071,1.071,0,0,0,0-1.531,1.106,1.106,0,0,0-.515-.285,13.17,13.17,0,0,0-15.98,9.377,12.694,12.694,0,0,0-.4,3.219,12.514,12.514,0,0,0,.267,2.537l-24.08,23.714a12.971,12.971,0,1,0,10.618,12.732,12.559,12.559,0,0,0-.268-2.538Zm-14.067,16.913a11.082,11.082,0,0,1-13.458-7.873,10.89,10.89,0,0,1,8-13.254,11.242,11.242,0,0,1,5.462,0,1.12,1.12,0,0,0,1.045-.285l24.937-24.56a1.07,1.07,0,0,0,.289-1.029,10.765,10.765,0,0,1,7.889-13.111,11.1,11.1,0,0,1,3.39-.315l-5.8,5.714a1.07,1.07,0,0,0-.266,1.108l2.2,6.5a1.089,1.089,0,0,0,.7.684l6.6,2.167a1.115,1.115,0,0,0,1.125-.261l5.8-5.712c.013.206.02.411.02.615a10.855,10.855,0,0,1-10.884,10.829,11.156,11.156,0,0,1-2.77-.337,1.109,1.109,0,0,0-1.044.285h.006l-24.943,24.56a1.074,1.074,0,0,0-.291,1.029,10.886,10.886,0,0,1-8,13.252" fill="#316a89"/>
      <path id="Path_50" data-name="Path 50" d="M406.233,307.552l-.057-.057L393.06,294.579a1.111,1.111,0,0,0-1.555,0l-.548.54a1.251,1.251,0,0,1-1.745,0,1.2,1.2,0,0,1,0-1.714l0,0,.55-.542a1.072,1.072,0,0,0,0-1.53l-.782-.771c-.518.511-1.031,1.02-1.55,1.531l.016.015a3.346,3.346,0,0,0,.426,4.761,3.472,3.472,0,0,0,4.412,0l12.339,12.163c.134.132.26.272.381.413l-9.4,9.259c-.144-.119-.286-.243-.42-.374l-12.349-12.162a3.345,3.345,0,0,0-.425-4.761,3.473,3.473,0,0,0-4.413,0l-.015-.015-1.55,1.531.781.77a1.113,1.113,0,0,0,1.556,0l.549-.542a1.253,1.253,0,0,1,1.745,0,1.2,1.2,0,0,1,0,1.716l-.552.544a1.071,1.071,0,0,0,0,1.531l13.117,12.918a8.971,8.971,0,0,0,12.549.056,8.644,8.644,0,0,0,.057-12.359m-3.978,12.277a6.767,6.767,0,0,1-4.693,0l8.587-8.458a6.538,6.538,0,0,1-3.895,8.458" fill="#aa8d68"/>
    </g>
    <path id="Color_Overlay" data-name="Color Overlay" d="M1195.823,2105.412l-13.117-12.918a1.071,1.071,0,0,1,0-1.531l.553-.544a1.2,1.2,0,0,0,0-1.715,1.254,1.254,0,0,0-1.746,0l-.548.542a1.114,1.114,0,0,1-1.557,0l-.78-.771q.772-.765,1.55-1.53l.015.014a3.473,3.473,0,0,1,4.413,0,3.345,3.345,0,0,1,.425,4.761l12.349,12.163c.133.132.276.256.42.375l9.4-9.259c-.121-.14-.247-.28-.381-.412l-12.338-12.164a3.475,3.475,0,0,1-4.414,0,3.345,3.345,0,0,1-.425-4.761l-.015-.015c.519-.511,1.033-1.021,1.55-1.532l.782.771a1.07,1.07,0,0,1,0,1.53l-.549.542,0,0a1.2,1.2,0,0,0,0,1.715,1.251,1.251,0,0,0,1.744,0l.548-.54a1.111,1.111,0,0,1,1.556,0l13.115,12.916.057.057a8.644,8.644,0,0,1-.057,12.359,8.971,8.971,0,0,1-12.549-.056Zm3.935-.025a6.775,6.775,0,0,0,4.694,0,6.539,6.539,0,0,0,3.9-8.458ZM1145,2094.979a13.152,13.152,0,0,1,15.772-12.731l24.078-23.714a12.7,12.7,0,0,1,.135-5.756,13.17,13.17,0,0,1,15.98-9.377,1.116,1.116,0,0,1,.516.285,1.069,1.069,0,0,1,0,1.531l-6.844,6.743,1.81,5.346,5.431,1.783,6.845-6.736a1.086,1.086,0,0,1,.51-.285,1.1,1.1,0,0,1,1.334.789,12.893,12.893,0,0,1,.4,3.227,13.152,13.152,0,0,1-15.77,12.643l-2.805,2.762-4.608,4.539-9.357,9.2.007.006q-.776.765-1.552,1.529l-1.95,1.922-.017.016-3.8,3.74a12.473,12.473,0,0,1,.268,2.538,13.2,13.2,0,0,1-26.389,0Zm10.391-10.493a10.89,10.89,0,0,0-8,13.255,11.081,11.081,0,0,0,13.456,7.873,10.887,10.887,0,0,0,8-13.252,1.07,1.07,0,0,1,.292-1.029l24.943-24.56h-.006a1.108,1.108,0,0,1,1.045-.284,11.169,11.169,0,0,0,2.769.337A10.855,10.855,0,0,0,1208.772,2056c0-.2-.007-.409-.019-.615l-5.8,5.712a1.117,1.117,0,0,1-1.125.261l-6.6-2.167a1.1,1.1,0,0,1-.7-.684l-2.2-6.5a1.069,1.069,0,0,1,.266-1.108l5.8-5.714a11.114,11.114,0,0,0-3.391.315,10.764,10.764,0,0,0-7.888,13.111,1.074,1.074,0,0,1-.29,1.03L1161.9,2084.2a1.117,1.117,0,0,1-1.046.284,11.269,11.269,0,0,0-5.46,0Zm-.495,16.989a1.1,1.1,0,0,1-.941-.525l-3.3-5.415a1.065,1.065,0,0,1,0-1.114l3.3-5.415a1.1,1.1,0,0,1,.941-.525h6.6a1.105,1.105,0,0,1,.943.525l3.3,5.415a1.065,1.065,0,0,1,0,1.114l-3.3,5.415a1.1,1.1,0,0,1-.943.525Zm-2.016-6.5,2.639,4.331h5.352l2.639-4.331-2.639-4.332h-5.352Zm46.643,3.248-9.44-9.3a1.069,1.069,0,0,1,0-1.531,1.11,1.11,0,0,1,1.554,0l9.441,9.3a1.069,1.069,0,0,1,0,1.531h0a1.113,1.113,0,0,1-1.555,0Zm-33.63-10.828h0a1.071,1.071,0,0,1,0-1.531l22.635-22.291a1.11,1.11,0,0,1,1.555,0,1.071,1.071,0,0,1,0,1.531l-22.635,22.292a1.113,1.113,0,0,1-1.555,0Zm-11.557-29.338-4.1-1.01a1.1,1.1,0,0,1-.688-.514l-4.4-7.579a1.073,1.073,0,0,1,.188-1.3l4.4-4.332a1.113,1.113,0,0,1,1.32-.173l7.7,4.33a1.092,1.092,0,0,1,.521.678l1.026,4.039,14.074,13.86-1.556,1.532-14.294-14.078a1.069,1.069,0,0,1-.288-.5l-.99-3.883-6.559-3.692-3.21,3.162,3.744,6.457,3.942.975a1.109,1.109,0,0,1,.511.285l14.293,14.076-1.555,1.531Z" fill="#2694ff"/>
  </g>
</svg>
