<svg xmlns="http://www.w3.org/2000/svg" width="79" height="64" viewBox="0 0 79 64">
  <g id="_7" data-name="7" transform="translate(-1358 -2154)">
    <g id="Vector_Smart_Object" data-name="Vector Smart Object" transform="translate(648.112 2095.18)">
      <path id="Path_57" data-name="Path 57" d="M726.282,78.595a1.147,1.147,0,0,0,1.157,1.136h20.252a1.136,1.136,0,1,0,0-2.272H727.439a1.147,1.147,0,0,0-1.157,1.136" fill="#aa8d68"/>
      <path id="Path_58" data-name="Path 58" d="M743.525,83.334H727.439a1.136,1.136,0,1,0,0,2.272h16.087a1.136,1.136,0,1,0,0-2.272" fill="#aa8d68"/>
      <path id="Path_59" data-name="Path 59" d="M743.525,89.208H727.439a1.136,1.136,0,1,0,0,2.272h16.087a1.136,1.136,0,1,0,0-2.272" fill="#aa8d68"/>
      <path id="Path_60" data-name="Path 60" d="M744.682,96.218a1.147,1.147,0,0,0-1.157-1.136H727.439a1.136,1.136,0,1,0,0,2.272h16.086a1.147,1.147,0,0,0,1.157-1.136" fill="#aa8d68"/>
      <path id="Path_61" data-name="Path 61" d="M747.691,100.956h-10.8a1.136,1.136,0,1,0,0,2.272h10.8a1.136,1.136,0,1,0,0-2.272" fill="#aa8d68"/>
      <path id="Path_62" data-name="Path 62" d="M727.439,100.956a1.136,1.136,0,1,0,0,2.272h5.595a1.136,1.136,0,1,0,0-2.272Z" fill="#aa8d68"/>
      <path id="Path_63" data-name="Path 63" d="M727.439,109.1h28.533a1.136,1.136,0,1,0,0-2.272H727.439a1.136,1.136,0,1,0,0,2.272" fill="#aa8d68"/>
      <path id="Path_64" data-name="Path 64" d="M755.972,73.842a1.136,1.136,0,1,0,0-2.272H740.44a1.136,1.136,0,1,0,0,2.272Z" fill="#aa8d68"/>
      <path id="Path_65" data-name="Path 65" d="M770.281,92.165a1.164,1.164,0,0,0-1.463.72,7.468,7.468,0,0,1-2.346,3.382,7.735,7.735,0,0,1-10.756-.944,7.4,7.4,0,0,1,.963-10.558,7.744,7.744,0,0,1,10.756.945,7.413,7.413,0,0,1,1.43,2.572,1.163,1.163,0,0,0,1.45.746,1.133,1.133,0,0,0,.76-1.423,9.65,9.65,0,0,0-1.865-3.352,10.09,10.09,0,0,0-14.016-1.23,9.653,9.653,0,0,0-1.254,13.758,9.942,9.942,0,0,0,6.748,3.464q.454.041.9.04a9.986,9.986,0,0,0,6.364-2.275,9.745,9.745,0,0,0,3.06-4.408,1.131,1.131,0,0,0-.734-1.436" fill="#ffbd29"/>
      <path id="Path_66" data-name="Path 66" d="M764.9,111.493a1.147,1.147,0,0,0-1.157,1.136v3.824a4.139,4.139,0,0,1-4.172,4.1h-.687a4.14,4.14,0,0,1-4.173-4.1v-2.125a1.607,1.607,0,0,0-1.62-1.591H720.251V65.187a4.139,4.139,0,0,1,4.172-4.1H731.8a1.136,1.136,0,1,0,0-2.272h-7.376a6.435,6.435,0,0,0-6.487,6.367v47.55h-6.427a1.607,1.607,0,0,0-1.62,1.591v2.125a6.435,6.435,0,0,0,6.487,6.367H759.57a6.435,6.435,0,0,0,6.487-6.367v-3.824a1.147,1.147,0,0,0-1.157-1.136m-48.525,9.055a4.139,4.139,0,0,1-4.172-4.1v-1.444H752.4v1.444a6.272,6.272,0,0,0,1.524,4.1Z" fill="#aa8d68"/>
      <path id="Path_67" data-name="Path 67" d="M728.558,72.721a1.157,1.157,0,1,1-1.157-1.136,1.147,1.147,0,0,1,1.157,1.136" fill="#12a7af"/>
      <path id="Path_68" data-name="Path 68" d="M732.724,72.721a1.157,1.157,0,1,1-1.157-1.136,1.147,1.147,0,0,1,1.157,1.136" fill="#12a7af"/>
      <path id="Path_69" data-name="Path 69" d="M736.89,72.721a1.157,1.157,0,1,1-1.157-1.136,1.147,1.147,0,0,1,1.157,1.136" fill="#12a7af"/>
      <path id="Path_70" data-name="Path 70" d="M763.743,64.83v9.8l2.314-.007h8.86a1.607,1.607,0,0,0,1.62-1.59V65.188a6.435,6.435,0,0,0-6.486-6.368H737.2a1.136,1.136,0,1,0,0,2.272h27.882a5.92,5.92,0,0,0-1.339,3.738m2.314,0a3.774,3.774,0,0,1,3.273-3.7h0a2.914,2.914,0,0,1,.412-.037h.306a4.134,4.134,0,0,1,4.172,4.1v7.159h-8.166Z" fill="#aa8d68"/>
      <path id="Path_71" data-name="Path 71" d="M763.743,106.458v.87a1.157,1.157,0,0,0,2.314,0v-.87Z" fill="#aa8d68"/>
      <path id="Path_72" data-name="Path 72" d="M788.394,115.54l-9.945-11.68a2.131,2.131,0,0,0-1.444-.74,2.156,2.156,0,0,0-.521.019l-3.548-4.167a13.8,13.8,0,0,0-.423-17.43,14.189,14.189,0,0,0-6.457-4.3,14.541,14.541,0,0,0-2.314-.543c-.23-.035-.461-.063-.693-.087l-.071-.007a14.4,14.4,0,0,0-10.55,3.178,13.819,13.819,0,0,0-1.8,19.715,14.253,14.253,0,0,0,9.671,4.965q.649.057,1.294.057.543,0,1.079-.041h0q.534-.041,1.061-.12a14.589,14.589,0,0,0,2.314-.545c.329-.107.654-.227.975-.358l.037-.014q.49-.2.966-.44l3.548,4.167a2.055,2.055,0,0,0,.374,2.024l9.945,11.68a2.158,2.158,0,0,0,3,.263l3.226-2.647a2.064,2.064,0,0,0,.269-2.942m-27.885-13.347a11.938,11.938,0,0,1-8.1-4.158,11.578,11.578,0,0,1,1.505-16.515A12.115,12.115,0,0,1,770.738,83a11.576,11.576,0,0,1-1.505,16.514,12.01,12.01,0,0,1-8.724,2.682m9.513-.406c.235-.17.469-.346.7-.532s.444-.379.656-.577l3.141,3.689-1.352,1.108Zm13.536,17.482-9.705-11.4,2.939-2.411,9.706,11.4Z" fill="#316a89"/>
    </g>
    <path id="Color_Overlay" data-name="Color Overlay" d="M1364.487,2218a6.436,6.436,0,0,1-6.487-6.367v-2.125a1.607,1.607,0,0,1,1.621-1.59h6.427v-47.551a6.435,6.435,0,0,1,6.486-6.366h7.376a1.136,1.136,0,1,1,0,2.271h-7.376a4.139,4.139,0,0,0-4.171,4.095v47.551H1401.2a1.606,1.606,0,0,1,1.62,1.59v2.125a4.14,4.14,0,0,0,4.172,4.1h.688a4.139,4.139,0,0,0,4.172-4.1v-3.824a1.158,1.158,0,0,1,2.315,0v3.824a6.436,6.436,0,0,1-6.487,6.367Zm-4.172-6.367a4.14,4.14,0,0,0,4.172,4.1h37.544a6.276,6.276,0,0,1-1.524-4.1v-1.444h-40.192Zm69.7,4.414-9.946-11.68a2.057,2.057,0,0,1-.374-2.024l-3.547-4.167c-.317.159-.64.306-.967.44l-.037.014c-.321.13-.646.25-.975.357a14.5,14.5,0,0,1-2.315.545q-.527.078-1.061.12h0c-.358.027-.717.041-1.079.041q-.645,0-1.294-.057a14.252,14.252,0,0,1-9.671-4.965,13.818,13.818,0,0,1,1.8-19.715,14.392,14.392,0,0,1,10.55-3.178l.07.007c.232.023.463.051.693.086a14.561,14.561,0,0,1,2.315.544,14.186,14.186,0,0,1,6.457,4.3,13.8,13.8,0,0,1,.423,17.43l3.548,4.167a2.143,2.143,0,0,1,1.965.722l9.944,11.68a2.064,2.064,0,0,1-.268,2.942l-3.227,2.647a2.159,2.159,0,0,1-3-.263Zm-8.049-13,9.706,11.4,2.939-2.412-9.706-11.4Zm-3.136-6.615c-.227.186-.46.363-.7.533l3.141,3.687,1.352-1.108-3.141-3.688C1419.273,2196.056,1419.055,2196.249,1418.829,2196.435Zm-16.8-19.734a11.579,11.579,0,0,0-1.506,16.515,12.1,12.1,0,0,0,16.825,1.477,11.576,11.576,0,0,0,1.5-16.515,12.116,12.116,0,0,0-16.824-1.477Zm-26.475,27.582a1.136,1.136,0,1,1,0-2.271h28.534a1.136,1.136,0,1,1,0,2.271Zm36.3-1.774v-.87h2.315v.87a1.158,1.158,0,0,1-2.315,0Zm-26.852-4.1a1.136,1.136,0,1,1,0-2.271h10.8a1.136,1.136,0,1,1,0,2.271Zm-9.452,0a1.136,1.136,0,1,1,0-2.271h5.6a1.136,1.136,0,1,1,0,2.271Zm33.248-2.984a9.939,9.939,0,0,1-6.748-3.464,9.653,9.653,0,0,1,1.255-13.757,10.089,10.089,0,0,1,14.016,1.23,9.647,9.647,0,0,1,1.865,3.352,1.133,1.133,0,0,1-.76,1.423,1.162,1.162,0,0,1-1.45-.746,7.417,7.417,0,0,0-1.43-2.571,7.744,7.744,0,0,0-10.757-.945,7.4,7.4,0,0,0-.963,10.558,7.734,7.734,0,0,0,10.757.944,7.468,7.468,0,0,0,2.346-3.381,1.164,1.164,0,0,1,1.463-.72,1.132,1.132,0,0,1,.734,1.436,9.747,9.747,0,0,1-3.06,4.408,9.988,9.988,0,0,1-6.364,2.274Q1409.253,2195.465,1408.8,2195.424Zm-33.247-2.89a1.136,1.136,0,1,1,0-2.272h16.086a1.136,1.136,0,1,1,0,2.272Zm0-5.874a1.136,1.136,0,1,1,0-2.272h16.087a1.136,1.136,0,1,1,0,2.272Zm0-5.874a1.136,1.136,0,1,1,0-2.272h16.087a1.136,1.136,0,1,1,0,2.272Zm0-5.875a1.136,1.136,0,1,1,0-2.271H1395.8a1.136,1.136,0,1,1,0,2.271Zm36.3-14.9a5.921,5.921,0,0,1,1.339-3.739h-27.883a1.136,1.136,0,1,1,0-2.271h32.853a6.436,6.436,0,0,1,6.486,6.367v7.841a1.607,1.607,0,0,1-1.621,1.59h-8.859l-2.315.007Zm2.315,0v7.517h8.166v-7.159a4.134,4.134,0,0,0-4.172-4.1h-.306a2.867,2.867,0,0,0-.412.038h0A3.773,3.773,0,0,0,1414.169,2160.011Zm-31.481,7.891a1.157,1.157,0,1,1,1.156,1.136A1.147,1.147,0,0,1,1382.688,2167.9Zm-4.166,0a1.157,1.157,0,1,1,1.156,1.136A1.146,1.146,0,0,1,1378.522,2167.9Zm-4.166,0a1.157,1.157,0,1,1,1.157,1.136A1.147,1.147,0,0,1,1374.356,2167.9Zm14.2,1.12a1.136,1.136,0,1,1,0-2.271h15.532a1.136,1.136,0,1,1,0,2.271Z" fill="#59b03b"/>
  </g>
</svg>
