<svg xmlns="http://www.w3.org/2000/svg" width="67" height="79" viewBox="0 0 67 79">
  <g id="_8" data-name="8" transform="translate(-1568 -2056)">
    <g id="Vector_Smart_Object" data-name="Vector Smart Object" transform="translate(1258.814 2001.689)">
      <path id="Path_89" data-name="Path 89" d="M354.282,130.763v-9.112a3.749,3.749,0,0,1,.333-1.553l4.265-9.49a6.29,6.29,0,0,0,.556-2.589v-2.741h16.75v-44.6h-9.02V54.311H352.993a11.625,11.625,0,0,0-10.308,6.217,11.624,11.624,0,0,0-10.308-6.217H318.2v6.371h-9.019v44.6h16.75v2.5a6.342,6.342,0,0,0,.811,3.095l5.146,9.159a3.8,3.8,0,0,1,.485,1.855v8.874h0v2.548h21.907ZM373.609,63.23v39.5H346.551V104a3.849,3.849,0,0,1-3.865,3.823,3.733,3.733,0,0,1-.476-.059,16.458,16.458,0,0,0-4.172-7.586h29.129V63.23Zm-52.827-6.371h11.6a8.97,8.97,0,0,1,9.02,8.92V74.7a1.289,1.289,0,0,0,2.577,0V65.779a8.969,8.969,0,0,1,9.019-8.92h11.6V97.634H343.975V79.795a1.289,1.289,0,0,0-2.577,0V97.634h-5.154V91.263a7.7,7.7,0,0,0-7.75-7.645,2.56,2.56,0,0,0-2.558,2.548V97.634h-5.154Zm-9.019,45.871V63.23H318.2v36.951h7.731v2.549ZM329,109.638a3.8,3.8,0,0,1-.486-1.857V86.166a5.131,5.131,0,0,1,5.154,5.1v8.173l2.264,2.239a13.932,13.932,0,0,1,4.177,9.975h2.577c0-.429-.03-.853-.063-1.278.021,0,.042,0,.063,0a6.435,6.435,0,0,0,6.312-5.1h7.861v2.741a3.745,3.745,0,0,1-.334,1.552l-4.264,9.49a6.3,6.3,0,0,0-.443,1.508H334.8a6.387,6.387,0,0,0-.658-1.774Zm5.956,18.577h11.6v-2.549h-11.6v-2.548h16.75v2.548h-2.577v2.549h2.577v2.549h-16.75Z" fill="#aa8d68"/>
      <path id="Path_90" data-name="Path 90" d="M354.282,87.44h0a1.274,1.274,0,1,1-1.289,1.275,1.282,1.282,0,0,1,1.289-1.275" fill="#ffbd29"/>
      <path id="Path_91" data-name="Path 91" d="M359.436,87.44h0a1.274,1.274,0,1,1-1.289,1.275,1.281,1.281,0,0,1,1.289-1.275" fill="#ffbd29"/>
      <path id="Path_92" data-name="Path 92" d="M349.128,87.44h0a1.274,1.274,0,1,1-1.288,1.275,1.282,1.282,0,0,1,1.288-1.275" fill="#ffbd29"/>
      <path id="Path_93" data-name="Path 93" d="M347.84,92.537h12.884a1.275,1.275,0,1,1,0,2.549H347.84a1.275,1.275,0,1,1,0-2.549" fill="#ffbd29"/>
      <path id="Path_94" data-name="Path 94" d="M347.84,82.343h12.884a1.274,1.274,0,1,1,0,2.549H347.84a1.274,1.274,0,1,1,0-2.549" fill="#ffbd29"/>
      <path id="Path_95" data-name="Path 95" d="M347.84,73.424h12.884a1.274,1.274,0,1,1,0,2.549H347.84a1.274,1.274,0,1,1,0-2.549" fill="#316a89"/>
      <path id="Path_96" data-name="Path 96" d="M347.84,68.327h12.884a1.275,1.275,0,1,1,0,2.549H347.84a1.275,1.275,0,1,1,0-2.549" fill="#316a89"/>
      <path id="Path_97" data-name="Path 97" d="M347.84,63.23h12.884a1.274,1.274,0,1,1,0,2.549H347.84a1.274,1.274,0,1,1,0-2.549" fill="#316a89"/>
      <path id="Path_98" data-name="Path 98" d="M331.09,68.327h0A1.275,1.275,0,1,1,329.8,69.6a1.282,1.282,0,0,1,1.288-1.275" fill="#12a7af"/>
      <path id="Path_99" data-name="Path 99" d="M336.244,68.327h0a1.275,1.275,0,1,1-1.289,1.275,1.282,1.282,0,0,1,1.289-1.275" fill="#12a7af"/>
      <path id="Path_100" data-name="Path 100" d="M325.936,68.327h0a1.275,1.275,0,1,1-1.288,1.275,1.282,1.282,0,0,1,1.288-1.275" fill="#12a7af"/>
      <path id="Path_101" data-name="Path 101" d="M324.648,63.23h12.884a1.274,1.274,0,1,1,0,2.549H324.648a1.274,1.274,0,1,1,0-2.549" fill="#12a7af"/>
      <path id="Path_102" data-name="Path 102" d="M324.648,73.424h12.884a1.274,1.274,0,1,1,0,2.549H324.648a1.274,1.274,0,1,1,0-2.549" fill="#12a7af"/>
      <path id="Path_103" data-name="Path 103" d="M324.648,78.521h12.884a1.274,1.274,0,1,1,0,2.549H324.648a1.274,1.274,0,1,1,0-2.549" fill="#12a7af"/>
    </g>
    <path id="Color_Overlay" data-name="Color Overlay" d="M1591.188,2135v-2.548h0v-8.874a3.786,3.786,0,0,0-.486-1.854l-5.146-9.159a6.345,6.345,0,0,1-.81-3.094v-2.5H1568v-44.6h9.019V2056h14.173a11.624,11.624,0,0,1,10.308,6.217,11.626,11.626,0,0,1,10.308-6.217h14.173v6.371H1635v44.6h-16.75v2.74a6.3,6.3,0,0,1-.555,2.589l-4.265,9.49a3.753,3.753,0,0,0-.333,1.552V2135Zm2.58-2.548h16.751V2129.9h-2.578v-2.548h2.578v-2.549h-16.751v2.549h11.6v2.548h-11.6Zm-6.442-22.981a3.8,3.8,0,0,0,.486,1.856l5.146,9.158a6.349,6.349,0,0,1,.658,1.774h17.015a6.327,6.327,0,0,1,.443-1.508l4.264-9.49a3.748,3.748,0,0,0,.334-1.552v-2.74h-7.862a6.434,6.434,0,0,1-6.312,5.1l-.063,0c.032.424.063.848.063,1.277h-2.578a13.935,13.935,0,0,0-4.177-9.975l-2.264-2.239v-8.173a5.131,5.131,0,0,0-5.154-5.1Zm13.7-.013a3.769,3.769,0,0,0,.477.059,3.849,3.849,0,0,0,3.865-3.823v-1.273h27.058v-39.5h-6.442v36.951h-29.129A16.464,16.464,0,0,1,1601.023,2109.457Zm-30.446-5.037h14.173v-2.549h-7.731v-36.951h-6.442Zm32.212-22.936v17.839H1623.4v-40.775h-11.6a8.969,8.969,0,0,0-9.019,8.92v8.919a1.289,1.289,0,0,1-2.578,0v-8.919a8.969,8.969,0,0,0-9.019-8.92h-11.6v40.775h5.154v-11.468a2.559,2.559,0,0,1,2.558-2.548,7.7,7.7,0,0,1,7.75,7.645v6.371h5.153v-17.839a1.289,1.289,0,0,1,2.578,0Zm3.865,15.291a1.274,1.274,0,1,1,0-2.549h12.884a1.274,1.274,0,1,1,0,2.549Zm10.307-6.371a1.289,1.289,0,1,1,1.289,1.274A1.282,1.282,0,0,1,1616.961,2090.4Zm-5.153,0a1.288,1.288,0,1,1,1.289,1.274A1.282,1.282,0,0,1,1611.807,2090.4Zm-5.153,0a1.288,1.288,0,1,1,1.288,1.274A1.281,1.281,0,0,1,1606.654,2090.4Zm0-3.823a1.274,1.274,0,1,1,0-2.549h12.884a1.274,1.274,0,1,1,0,2.549Zm-23.192-3.822a1.274,1.274,0,1,1,0-2.549h12.884a1.274,1.274,0,1,1,0,2.549Zm23.192-5.1a1.274,1.274,0,1,1,0-2.549h12.884a1.274,1.274,0,1,1,0,2.549Zm-23.192,0a1.274,1.274,0,1,1,0-2.549h12.884a1.274,1.274,0,1,1,0,2.549Zm23.192-5.1a1.274,1.274,0,1,1,0-2.549h12.884a1.274,1.274,0,1,1,0,2.549Zm-12.885-1.274a1.289,1.289,0,1,1,1.289,1.274A1.282,1.282,0,0,1,1593.769,2071.291Zm-5.153,0a1.288,1.288,0,1,1,1.288,1.274A1.282,1.282,0,0,1,1588.615,2071.291Zm-5.153,0a1.288,1.288,0,1,1,1.288,1.274A1.281,1.281,0,0,1,1583.462,2071.291Zm23.192-3.823a1.274,1.274,0,1,1,0-2.549h12.884a1.274,1.274,0,1,1,0,2.549Zm-23.192,0a1.274,1.274,0,1,1,0-2.549h12.884a1.274,1.274,0,1,1,0,2.549Z" fill="#0c7109"/>
  </g>
</svg>
