<svg xmlns="http://www.w3.org/2000/svg" width="65" height="71.001" viewBox="0 0 65 71.001">
  <g id="Vector_Smart_Object" data-name="Vector Smart Object" transform="translate(-62 -2036)">
    <g id="Vector_Smart_Object-2" data-name="Vector Smart Object" transform="translate(-661.303 1976.964)">
      <path id="Path_1" data-name="Path 1" d="M761.089,59.036A28.815,28.815,0,0,0,742.133,66.3a23.674,23.674,0,0,0-8.3,17.321l-10.349,16.414a1.136,1.136,0,0,0,.964,1.743h9.486l.108,10.838a7.155,7.155,0,0,0,7.346,7.092l8.444-.261v9.376a1.251,1.251,0,0,0,.359.849,1.224,1.224,0,0,0,.82.364h.015l33.694-.469a1.154,1.154,0,0,0,1.124-1.153l.128-22.6c.194-1.754.488-3.8.8-5.959,1.2-8.384,2.695-18.815.142-24.152-3.523-9.66-14.369-16.667-25.815-16.667m23.418,40.491c-.316,2.2-.613,4.281-.812,6.087a1.135,1.135,0,0,0-.006.119l-.141,21.53-31.444.405v-8.29l8.479-.261a1.142,1.142,0,1,0-.056-2.282l-19.2.592a4.873,4.873,0,0,1-5.016-4.828l-.12-11.968a1.143,1.143,0,0,0-1.139-1.134h-8.546l9.418-14.933a1.132,1.132,0,0,0,.176-.608A21.372,21.372,0,0,1,743.648,68a26.509,26.509,0,0,1,17.441-6.684,27.365,27.365,0,0,1,14.592,4.32,22.326,22.326,0,0,1,9.1,10.894,1.18,1.18,0,0,0,.048.112c2.282,4.69.837,14.776-.323,22.881" fill="#aa8d68"/>
      <path id="Path_2" data-name="Path 2" d="M761.3,77a12.083,12.083,0,0,0-8.161,3.361,10.956,10.956,0,0,0-.308,15.867,6.211,6.211,0,0,1,2.13,5.606,1.222,1.222,0,0,0,.271.943,1.171,1.171,0,0,0,.858.425h0l4.824-.054a1.125,1.125,0,0,0,.438.072,1.157,1.157,0,0,0,.447-.1l4.976-.025a1.146,1.146,0,0,0,1.124-1.3c-.293-2.122.318-3.67,2.174-5.522l.012-.011a11.228,11.228,0,0,0,3.28-7.857,11.111,11.111,0,0,0-3.36-7.941A12.035,12.035,0,0,0,761.3,77m7.166,17.657a8.484,8.484,0,0,0-2.909,6.155l-3.061.013V91.27a2.38,2.38,0,0,0,1.783.8,2.8,2.8,0,0,0,2.324-1.486c.246-.352.37-.51.455-.51a1.142,1.142,0,0,0,0-2.283,2.8,2.8,0,0,0-2.324,1.486c-.246.353-.37.51-.456.51s-.211-.156-.457-.51a2.8,2.8,0,0,0-2.322-1.486c-.044,0-.086,0-.127.006h-.017a1.106,1.106,0,0,0-.242.027,2.969,2.969,0,0,0-1.939,1.455c-.245.353-.369.51-.455.51s-.21-.156-.455-.51a2.8,2.8,0,0,0-2.324-1.486,1.142,1.142,0,0,0,0,2.283c.085,0,.209.158.455.51a2.8,2.8,0,0,0,2.323,1.486,2.3,2.3,0,0,0,1.5-.534v9.3l-2.912.013a8.694,8.694,0,0,0-2.87-6.237,8.786,8.786,0,0,1-2.573-6.359c.08-4.783,4.419-8.889,9.471-8.967h.152a9.771,9.771,0,0,1,6.924,2.806,8.834,8.834,0,0,1,2.681,6.315,8.952,8.952,0,0,1-2.624,6.254Z" fill="#ffbd29"/>
      <path id="Path_3" data-name="Path 3" d="M761.216,75.6a1.14,1.14,0,0,0,1.139-1.142V70.215a1.139,1.139,0,1,0-2.278,0v4.243a1.14,1.14,0,0,0,1.139,1.142" fill="#774592"/>
      <path id="Path_4" data-name="Path 4" d="M774.7,75.626l-3.274,2.945a1.141,1.141,0,1,0,1.521,1.7l3.273-2.945a1.14,1.14,0,1,0-1.521-1.7" fill="#774592"/>
      <path id="Path_5" data-name="Path 5" d="M750.679,80.172a1.142,1.142,0,0,0,.791-1.963l-3.138-3.031a1.14,1.14,0,0,0-1.58,1.644l3.138,3.03a1.13,1.13,0,0,0,.789.321" fill="#774592"/>
      <path id="Path_6" data-name="Path 6" d="M767.48,105.489a1.14,1.14,0,0,0-1.139-1.142H756.66a1.141,1.141,0,0,0-1.139,1.142v4.71a1.14,1.14,0,0,0,1.139,1.141h9.681a1.14,1.14,0,0,0,1.139-1.141Zm-2.278,3.568h-7.4v-2.426h7.4Z" fill="#316a89"/>
    </g>
    <path id="Color_Overlay" data-name="Color Overlay" d="M89.7,2107a1.228,1.228,0,0,1-.82-.365,1.25,1.25,0,0,1-.358-.849v-9.375l-8.445.26a7.154,7.154,0,0,1-7.346-7.091l-.108-10.837H63.139a1.136,1.136,0,0,1-.964-1.744l10.349-16.414a23.676,23.676,0,0,1,8.305-17.321A28.819,28.819,0,0,1,99.787,2036c11.446,0,22.291,7.007,25.815,16.668,2.552,5.336,1.059,15.767-.142,24.15-.309,2.16-.6,4.2-.8,5.96l-.128,22.6a1.152,1.152,0,0,1-1.123,1.151l-33.694.47Zm10.543-12.662a1.141,1.141,0,0,1-.965,1.741l-8.478.261v8.289l31.444-.405.14-21.529a1.074,1.074,0,0,1,.006-.119c.2-1.805.5-3.885.812-6.087,1.16-8.1,2.605-18.19.323-22.882a.941.941,0,0,1-.049-.112,22.324,22.324,0,0,0-9.1-10.894,27.365,27.365,0,0,0-14.592-4.321,26.512,26.512,0,0,0-17.441,6.684,21.375,21.375,0,0,0-7.546,15.951,1.131,1.131,0,0,1-.176.608l-9.418,14.933h8.546a1.144,1.144,0,0,1,1.139,1.134l.12,11.969a4.872,4.872,0,0,0,5.016,4.828l19.2-.591a.466.466,0,0,1,.052,0A1.137,1.137,0,0,1,100.245,2094.339Zm-4.888-6.035a1.14,1.14,0,0,1-1.139-1.14v-4.712a1.14,1.14,0,0,1,1.139-1.14h9.681a1.139,1.139,0,0,1,1.139,1.14v4.712a1.14,1.14,0,0,1-1.139,1.14Zm1.139-2.282h7.4v-2.427H96.5Zm3.121-5.906-4.825.054h0a1.178,1.178,0,0,1-.858-.425,1.225,1.225,0,0,1-.271-.944,6.207,6.207,0,0,0-2.13-5.605,10.958,10.958,0,0,1,.308-15.868,12.129,12.129,0,0,1,16.871.1,11.111,11.111,0,0,1,3.36,7.941,11.231,11.231,0,0,1-3.28,7.858l-.013.012c-1.856,1.851-2.467,3.4-2.174,5.521a1.146,1.146,0,0,1-1.123,1.3l-4.976.025a1.17,1.17,0,0,1-.446.1h-.04A1.128,1.128,0,0,1,99.617,2080.116Zm.415-23.864c-5.053.077-9.391,4.182-9.471,8.966a8.786,8.786,0,0,0,2.572,6.359,8.691,8.691,0,0,1,2.87,6.237l2.912-.014v-9.3a2.3,2.3,0,0,1-1.5.534,2.8,2.8,0,0,1-2.323-1.486c-.247-.353-.37-.51-.455-.51a1.141,1.141,0,0,1,0-2.282,2.8,2.8,0,0,1,2.324,1.486c.245.354.37.509.454.509s.211-.156.455-.509a2.962,2.962,0,0,1,1.939-1.454,1.1,1.1,0,0,1,.242-.028l.016,0c.041,0,.083-.006.127-.006a2.8,2.8,0,0,1,2.322,1.487c.247.354.371.509.457.509s.21-.156.455-.509a2.8,2.8,0,0,1,2.324-1.487,1.141,1.141,0,0,1,0,2.282c-.086,0-.21.157-.455.51a2.8,2.8,0,0,1-2.324,1.487,2.385,2.385,0,0,1-1.784-.8v9.559l3.061-.014a8.488,8.488,0,0,1,2.91-6.155v0a8.958,8.958,0,0,0,2.624-6.254,8.834,8.834,0,0,0-2.681-6.316,9.766,9.766,0,0,0-6.849-2.806h-.075Zm10.494,1.22a1.141,1.141,0,0,1-.4-1.938l3.274-2.945a1.14,1.14,0,1,1,1.52,1.7l-3.273,2.945a1.134,1.134,0,0,1-1.117.239Zm-21.939-.657-3.138-3.028a1.14,1.14,0,0,1,1.58-1.644l3.137,3.03a1.142,1.142,0,0,1-.79,1.964A1.129,1.129,0,0,1,88.587,2056.815Zm10.187-5.393v-4.245a1.139,1.139,0,1,1,2.278,0v4.245a1.139,1.139,0,1,1-2.278,0Z" fill="#a21e29"/>
  </g>
</svg>
