<?xml version="1.0" encoding="UTF-8"?><svg id="Layer_1" xmlns="http://www.w3.org/2000/svg" viewBox="0 0 196.64 112"><defs><style>.cls-1{fill:#a6a6a6;}.cls-2{isolation:isolate;}.cls-3{fill:#193661;}.cls-4{fill:#888;}</style></defs><g class="cls-2"><path class="cls-3" d="M182.76,112h-3c-3.27-2.36-4.21-5.55-4.1-9.53,.23-8.81,.1-17.63,.05-26.44,0-1.51,.54-3.31-1.34-4.55-1.59,1.48-1.04,3.22-1.05,4.74-.05,8.15-.17,16.3,.04,24.45,.11,4.29-.33,8.21-3.59,11.34h-4c-3.35-2.83-4-6.49-3.89-10.7,.24-8.32,.07-16.66,.07-24.99,0-11.33,.03-22.66-.04-33.99,0-1.26,.75-3.06-2.13-3.96-.54,9.84,.07,19.37-.38,29.37-5.01-2.29-6.97-6.03-7.17-10.51-.3-6.65-.32-13.34,0-19.99,.31-6.6,5.41-11.58,12-11.83,6.66-.25,13.33-.23,19.99-.02,6.79,.22,11.98,5.34,12.24,12.12,.25,6.49,.25,13,0,19.49-.17,4.47-2,8.24-6.81,10.5-.93-5.15-.32-9.94-.48-14.68-.16-4.69,.25-9.42-.32-14.77-2.8,1.81-2.11,3.8-2.11,5.44-.04,19.66-.12,39.33,.06,58.99,.04,3.98-.78,7.17-4.05,9.54Z"/><circle class="cls-3" cx="174.32" cy="11" r="11"/></g><g class="cls-2"><path class="cls-1" d="M131.76,112h-3c-3.27-2.36-4.21-5.55-4.1-9.53,.23-8.81,.1-17.63,.05-26.44,0-1.51,.54-3.31-1.34-4.55-1.59,1.48-1.04,3.22-1.05,4.74-.05,8.15-.17,16.3,.04,24.45,.11,4.29-.33,8.21-3.59,11.34h-4c-3.35-2.83-4-6.49-3.89-10.7,.24-8.32,.07-16.66,.07-24.99,0-11.33,.03-22.66-.04-33.99,0-1.26,.75-3.06-2.13-3.96-.54,9.84,.07,19.37-.38,29.37-5.01-2.29-6.97-6.03-7.17-10.51-.3-6.65-.32-13.34,0-19.99,.31-6.6,5.41-11.58,12-11.83,6.66-.25,13.33-.23,19.99-.02,6.79,.22,11.98,5.34,12.24,12.12,.25,6.49,.25,13,0,19.49-.17,4.47-2,8.24-6.81,10.5-.93-5.15-.32-9.94-.48-14.68-.16-4.69,.25-9.42-.32-14.77-2.8,1.81-2.11,3.8-2.11,5.44-.04,19.66-.12,39.33,.06,58.99,.04,3.98-.78,7.17-4.05,9.54Z"/><circle class="cls-1" cx="123.32" cy="11" r="11"/></g><g class="cls-2"><path class="cls-1" d="M81.76,112h-3c-3.27-2.36-4.21-5.55-4.1-9.53,.23-8.81,.1-17.63,.05-26.44,0-1.51,.54-3.31-1.34-4.55-1.59,1.48-1.04,3.22-1.05,4.74-.05,8.15-.17,16.3,.04,24.45,.11,4.29-.33,8.21-3.59,11.34h-4c-3.35-2.83-4-6.49-3.89-10.7,.24-8.32,.07-16.66,.07-24.99,0-11.33,.03-22.66-.04-33.99,0-1.26,.75-3.06-2.13-3.96-.54,9.84,.07,19.37-.38,29.37-5.01-2.29-6.97-6.03-7.17-10.51-.3-6.65-.32-13.34,0-19.99,.31-6.6,5.41-11.58,12-11.83,6.66-.25,13.33-.23,19.99-.02,6.79,.22,11.98,5.34,12.24,12.12,.25,6.49,.25,13,0,19.49-.17,4.47-2,8.24-6.81,10.5-.93-5.15-.32-9.94-.48-14.68-.16-4.69,.25-9.42-.32-14.77-2.8,1.81-2.11,3.8-2.11,5.44-.04,19.66-.12,39.33,.06,58.99,.04,3.98-.78,7.17-4.05,9.54Z"/><circle class="cls-1" cx="73.32" cy="11" r="11"/></g><g class="cls-2"><path class="cls-4" d="M30.76,112h-3c-3.27-2.36-4.21-5.55-4.1-9.53,.23-8.81,.1-17.63,.05-26.44,0-1.51,.54-3.31-1.34-4.55-1.59,1.48-1.04,3.22-1.05,4.74-.05,8.15-.17,16.3,.04,24.45,.11,4.29-.33,8.21-3.59,11.34h-4c-3.35-2.83-4-6.49-3.89-10.7,.24-8.32,.07-16.66,.07-24.99,0-11.33,.03-22.66-.04-33.99,0-1.26,.75-3.06-2.13-3.96-.54,9.84,.07,19.37-.38,29.37C2.39,65.43,.43,61.69,.23,57.21c-.3-6.65-.32-13.34,0-19.99,.31-6.6,5.41-11.58,12-11.83,6.66-.25,13.33-.23,19.99-.02,6.79,.22,11.98,5.34,12.24,12.12,.25,6.49,.25,13,0,19.49-.17,4.47-2,8.24-6.81,10.5-.93-5.15-.32-9.94-.48-14.68-.16-4.69,.25-9.42-.32-14.77-2.8,1.81-2.11,3.8-2.11,5.44-.04,19.66-.12,39.33,.06,58.99,.04,3.98-.78,7.17-4.05,9.54Z"/><circle class="cls-4" cx="22.32" cy="11" r="11"/></g></svg>